<svg width="255" height="44" viewBox="0 0 255 44" fill="none" xmlns="http://www.w3.org/2000/svg">
<g filter="url(#filter0_d_6_16)">
<mask id="path-1-outside-1_6_16" maskUnits="userSpaceOnUse" x="3.80014" y="-0.199997" width="248" height="36" fill="black">
<rect fill="white" x="3.80014" y="-0.199997" width="248" height="36"/>
<path d="M247.807 17.4306C247.808 17.7464 247.455 18.2927 246.749 19.0696C246.074 19.8465 245.398 20.5372 244.722 21.1417C244.077 21.7463 243.77 22.0485 243.801 22.0484C243.832 22.0483 243.77 22.1346 243.617 22.3072C243.494 22.4798 243.356 22.6811 243.203 22.9111C243.049 23.1125 242.973 23.2562 242.973 23.3423L243.019 23.4283C243.05 23.4569 243.127 23.4711 243.25 23.4708C243.928 23.469 245.665 22.6895 248.463 21.1321L250.078 20.2667C250.139 20.2665 250.17 20.3239 250.17 20.4387C250.171 20.7832 248.435 22.0651 244.961 24.2845C244.07 24.8896 243.239 25.1932 242.47 25.1952C242.069 25.1962 241.7 25.0536 241.36 24.7675C241.051 24.4812 240.897 24.1658 240.896 23.8214C240.895 23.4195 241.278 22.7582 242.045 21.8376C242.291 21.5212 242.536 21.2048 242.782 20.8884C243.058 20.5719 243.35 20.2267 243.657 19.8527C244.117 19.3061 244.316 18.9755 244.255 18.8608C244.162 18.7175 243.961 18.6463 243.654 18.6471C243.038 18.6487 242.33 18.8801 241.531 19.3415C239.901 20.3217 238.825 20.8125 238.302 20.8139L238.209 20.7711C238.178 20.7424 238.224 20.6706 238.347 20.5554C238.501 20.4402 238.762 20.2816 239.131 20.0797C239.5 19.8491 239.976 19.5608 240.561 19.2148C241.176 18.8688 241.944 18.4362 242.867 17.9171C243.174 17.744 243.328 17.6432 243.328 17.6145C243.297 17.5571 243.25 17.4998 243.189 17.4426C242.942 17.271 242.818 16.9986 242.817 16.6254C242.816 16.1661 242.984 15.8069 243.322 15.5476C243.537 15.3461 243.783 15.2019 244.06 15.1151C244.275 15.0284 244.491 14.9848 244.706 14.9843C245.107 14.9832 245.446 15.1115 245.723 15.3692C246.032 15.598 246.187 15.8703 246.187 16.1861C246.188 16.2722 246.157 16.4015 246.096 16.5739C246.035 16.7176 246.081 16.7892 246.235 16.7888C246.297 16.8174 246.451 16.817 246.697 16.7876L246.928 16.787C247.513 16.7855 247.806 17 247.807 17.4306Z"/>
<path d="M234.586 13.4172C234.093 13.4185 233.355 13.607 232.371 13.9827C231.417 14.3584 230.572 14.7912 229.834 15.2811C229.434 15.5405 228.943 15.9437 228.359 16.4906C227.806 17.0087 227.468 17.3828 227.346 17.6128C227.131 17.9578 227.132 18.13 227.347 18.1295C227.44 18.1292 227.732 18.028 228.224 17.8258C228.747 17.6235 229.039 17.4936 229.1 17.436C229.193 17.3496 229.485 17.191 229.977 16.9601C231.422 16.2387 232.621 15.561 233.574 14.9269C234.527 14.2642 235.003 13.8181 235.002 13.5884C235.002 13.4736 234.863 13.4165 234.586 13.4172ZM233.66 12.3431C234.121 12.1984 234.521 12.1256 234.86 12.1247C235.845 12.1222 236.339 12.451 236.34 13.1113C236.341 13.1974 236.31 13.3267 236.249 13.4991C236.127 13.8726 235.512 14.4483 234.406 15.2262C233.33 15.9754 232.116 16.7105 230.763 17.4317C230.609 17.5182 230.409 17.6192 230.163 17.7346C229.948 17.85 229.764 17.951 229.61 18.0375C229.487 18.1239 229.41 18.1815 229.38 18.2103C229.257 18.3255 228.842 18.5419 228.134 18.8595C227.427 19.1771 226.904 19.3794 226.565 19.4663C226.196 19.5821 225.689 19.9423 225.044 20.5468C224.43 21.1512 223.985 21.7121 223.709 22.2296C223.433 22.8044 223.296 23.1636 223.296 23.3071C223.297 23.5942 223.559 23.737 224.082 23.7357C225.129 23.733 226.729 23.2982 228.882 22.4315C229.774 22.0847 230.297 21.8393 230.451 21.6954L232.204 20.8297C233.464 20.2236 234.541 19.661 235.432 19.142C236.539 18.5363 237.123 18.2334 237.185 18.2332C237.216 18.2331 237.231 18.2618 237.231 18.3192C237.233 18.8359 235.296 20.104 231.422 22.1235C228.962 23.5078 226.671 24.461 224.548 24.9832C223.994 25.1282 223.44 25.2014 222.885 25.2028C222.331 25.2042 221.977 25.1334 221.823 24.9903C221.391 24.6756 221.174 24.1882 221.172 23.5279L221.172 23.2696C221.293 22.4655 221.752 21.5457 222.55 20.5102C223.133 19.7623 223.947 18.8703 224.991 17.8342C226.035 16.798 226.895 16.0351 227.571 15.5453C227.633 15.4877 227.725 15.4157 227.848 15.3293C227.971 15.2429 228.078 15.1708 228.171 15.1132C228.263 15.0268 228.324 14.9692 228.355 14.9405C228.662 14.6239 229.4 14.1914 230.569 13.6429C231.737 13.0658 232.767 12.6325 233.66 12.3431Z"/>
<path d="M209.672 27.5622C209.764 27.361 209.81 27.2604 209.81 27.2604C209.656 27.2608 209.057 27.6643 208.012 28.4708C206.998 29.2485 206.122 29.9827 205.385 30.6736C204.064 31.9114 203.404 32.7456 203.406 33.1762C203.406 33.2623 203.437 33.334 203.498 33.3912C203.529 33.4199 203.591 33.4341 203.683 33.4338C203.899 33.4333 204.329 33.1738 204.975 32.6554C205.589 32.1945 206.464 31.3454 207.6 30.1081C208.737 28.8708 209.427 28.0222 209.672 27.5622ZM210.519 15.6756C211.011 15.3298 211.349 15.1567 211.534 15.1562C211.595 15.1561 211.688 15.2132 211.811 15.3277C211.873 15.4424 211.904 15.5141 211.904 15.5428C211.905 15.7725 211.613 16.0603 211.029 16.4063C210.137 16.9253 209.262 17.5591 208.401 18.3077C207.572 19.0562 207.111 19.5885 207.02 19.9045C206.989 19.962 206.974 20.0338 206.974 20.1199C206.975 20.2921 207.067 20.378 207.252 20.3775C207.652 20.3765 208.913 19.8278 211.035 18.7315C213.495 17.462 214.956 16.8267 215.418 16.8255L215.51 16.8253C215.726 16.8534 215.849 16.8962 215.88 16.9535C215.942 17.0107 215.973 17.1685 215.973 17.4269C215.976 18.2881 215.395 19.768 214.23 21.8666C214.015 22.269 213.862 22.5708 213.77 22.772C213.678 22.9445 213.571 23.1457 213.449 23.3757C213.326 23.6056 213.25 23.7781 213.219 23.893L213.127 24.0224C213.158 24.0223 213.665 23.6909 214.649 23.0281C215.632 22.3366 216.739 21.6448 217.969 20.9526C219.198 20.2605 219.906 19.9142 220.09 19.9137L220.137 19.9136C220.322 20.0853 220.107 20.3299 219.492 20.6473C219.246 20.7914 218.37 21.3248 216.863 22.2473C215.357 23.1698 214.42 23.7607 214.051 24.02C213.067 24.7689 212.177 25.7042 211.379 26.8258C209.723 29.1553 208.219 30.9677 206.867 32.263C205.516 33.587 204.455 34.25 203.685 34.252C203.039 34.2536 202.715 34.0105 202.714 33.5225C202.713 33.2641 202.774 33.0056 202.896 32.7469C203.386 31.4826 205.229 29.7698 208.425 27.6085C209.409 26.9457 210.008 26.5136 210.223 26.3121C211.144 25.3337 212.294 23.3643 213.672 20.404C214.193 19.3405 214.453 18.6652 214.452 18.3781C214.451 18.2346 214.39 18.163 214.267 18.1633C213.897 18.1643 212.821 18.6981 211.038 19.7649C208.886 21.0622 207.425 21.7119 206.655 21.7139C206.532 21.7142 206.347 21.686 206.101 21.6292C205.638 21.5156 205.407 21.2004 205.405 20.6837C205.404 20.2244 205.864 19.5343 206.786 18.6133C207.738 17.6635 208.982 16.6843 210.519 15.6756Z"/>
<path d="M196.4 18.0876C196.246 18.088 195.846 18.1895 195.2 18.3921C193.447 18.9995 191.817 19.7644 190.31 20.6869C189.234 21.3499 188.22 22.142 187.268 23.063C186.347 23.984 185.825 24.703 185.703 25.2201C185.704 25.2488 185.704 25.2775 185.704 25.3062L185.658 25.3924C185.658 25.5073 185.735 25.5645 185.889 25.5641C186.197 25.5633 186.997 25.2167 188.288 24.5244C190.379 23.4282 192.316 22.2319 194.098 20.9354C195.911 19.639 196.818 18.8041 196.817 18.431C196.816 18.2013 196.677 18.0868 196.4 18.0876ZM196.35 16.4945C196.504 16.4367 196.981 16.4067 197.781 16.4047C198.428 16.4317 198.829 16.5311 198.983 16.703C199.137 16.9035 199.215 17.1473 199.216 17.4344C199.217 17.7789 199.125 17.9657 198.94 17.9949C198.448 18.111 198.433 18.3837 198.896 18.8131C199.328 19.1565 199.544 19.5291 199.546 19.931C199.546 20.0171 199.53 20.0746 199.5 20.1033C199.438 20.1896 198.732 20.8373 197.38 22.0465C195.199 23.9181 194.109 25.184 194.111 25.8442C194.111 25.959 194.127 26.0451 194.158 26.1025C194.189 26.1885 194.358 26.2311 194.666 26.2303C195.251 26.2288 196.051 26.0688 197.067 25.7504C199.466 24.9405 202.003 23.6852 204.677 21.9846C204.954 21.8116 205.154 21.7393 205.277 21.7677C205.431 21.7673 205.585 21.8817 205.74 22.111C205.771 22.1396 205.786 22.1826 205.787 22.2401C205.787 22.3262 205.157 22.7584 203.896 23.5367C199.039 26.5348 195.718 28.0505 193.932 28.0838L193.793 28.0841C192.685 28.087 192.083 27.4857 191.987 26.2803L191.987 25.9358C191.985 25.1608 192.26 24.4137 192.812 23.6946C193.272 23.0332 193.379 22.7028 193.133 22.7034C192.825 22.7042 191.227 23.7561 188.338 25.8592C187.078 26.781 186.217 27.3717 185.756 27.6313C185.233 27.9484 184.787 28.1074 184.418 28.1084C183.987 28.1095 183.601 27.8952 183.261 27.4655C183.045 27.1216 182.936 26.8204 182.936 26.5621C182.935 26.275 183.057 25.9015 183.302 25.4416C184.099 23.9755 185.911 22.2771 188.739 20.3465C191.567 18.3871 194.104 17.1031 196.35 16.4945Z"/>
<path d="M185.837 5.58454C185.837 5.49842 185.822 5.44105 185.791 5.41242C185.791 5.38371 185.76 5.35509 185.698 5.32654C185.667 5.29791 185.621 5.28368 185.56 5.28384C185.529 5.25521 185.436 5.2411 185.282 5.2415L185.005 5.24222C184.543 5.24341 184.005 5.38834 183.39 5.67699C182.406 6.08143 180.915 7.01824 178.917 8.48744C176.95 9.95656 175.291 11.3675 173.94 12.7202C171.145 15.4545 169.318 17.3108 168.458 18.289C167.23 19.7275 166.617 20.5042 166.617 20.619C166.617 20.6764 167.278 20.2872 168.6 19.4513C169.952 18.5866 171.351 17.6787 172.796 16.7277C174.24 15.7766 175.116 15.1859 175.424 14.9554C175.454 14.9266 175.577 14.8259 175.792 14.6531C176.007 14.4803 176.238 14.3074 176.484 14.1346C176.76 13.9329 177.022 13.7456 177.268 13.5727C178.958 12.3627 180.633 11.0522 182.292 9.64132C183.951 8.20171 184.995 7.16557 185.424 6.53292C185.731 6.10153 185.869 5.7854 185.837 5.58454ZM185.046 3.26137C185.754 3.05859 186.323 2.95664 186.754 2.95553C187.77 2.9529 188.387 3.20966 188.604 3.72581C188.635 3.78315 188.65 3.88358 188.651 4.02711C188.655 5.63466 185.184 8.97359 178.239 14.0439C175.873 15.8585 172.599 18.1635 168.419 20.9588C166.114 22.4862 164.9 23.4223 164.778 23.7671C164.655 24.1693 164.595 24.5283 164.596 24.8441C164.597 25.2747 164.675 25.5903 164.829 25.7908C165.107 26.1346 165.554 26.3057 166.17 26.3041L166.585 26.303C167.848 26.271 169.601 25.7354 171.846 24.6962C172.738 24.292 174.06 23.5996 175.813 22.619C177.596 21.6384 178.703 20.9896 179.133 20.6728C179.963 20.0965 180.486 19.8081 180.701 19.8075L180.748 19.8074C180.871 19.8358 180.933 19.9792 180.933 20.2375C180.934 20.4959 180.889 20.7113 180.797 20.8838C180.735 20.97 180.489 21.1286 180.059 21.3593C179.844 21.4747 178.814 22.0228 176.969 23.0036C171.68 25.8305 168.313 27.4181 166.866 27.7663C166.466 27.8821 165.912 27.941 165.204 27.9428C164.404 27.9449 163.849 27.8746 163.541 27.7318C162.986 27.4749 162.6 27.1601 162.384 26.7875C162.291 26.6155 162.244 26.2568 162.242 25.7114C162.241 25.166 162.286 24.7209 162.378 24.3762C162.926 22.2218 164.828 19.418 168.083 15.9648C170.232 13.6914 172.321 11.7053 174.349 10.0064C178.558 6.46457 182.124 4.21624 185.046 3.26137Z"/>
<path d="M150.276 24.1922C150.276 24.1348 150.276 24.063 150.276 23.9769C150.306 23.862 150.322 23.7902 150.321 23.7615C150.321 23.5031 150.244 23.3742 150.09 23.3746C149.966 23.3749 149.505 23.5627 148.705 23.9379C147.383 24.5729 146.722 25.0769 146.723 25.4501C146.724 25.7659 147.156 25.9801 148.018 26.0927C148.603 26.1773 149.065 26.133 149.403 25.9599C149.895 25.6716 150.186 25.0823 150.276 24.1922ZM166.525 3.09399C166.525 3.00787 166.433 2.96505 166.248 2.96553C165.878 2.96649 165.478 3.06799 165.048 3.27005C163.756 3.84753 162.019 4.97157 159.838 6.64219C157.656 8.31281 156.12 9.70904 155.23 10.8309C154.463 11.8089 154.08 12.4845 154.08 12.8577C154.081 12.9151 154.112 12.9437 154.173 12.9436C154.389 12.943 155.603 12.1217 157.815 10.4797C160.028 8.80903 162.133 7.12426 164.13 5.42541C165.727 4.12949 166.526 3.35235 166.525 3.09399ZM166.153 1.84623C166.583 1.73029 166.86 1.67216 166.984 1.67184C167.63 1.67017 167.954 1.91333 167.955 2.40134C167.957 2.91805 167.297 3.7953 165.976 5.0331C164.348 6.55875 160.906 9.15124 155.651 12.8106C154.79 13.4156 154.083 13.9485 153.53 14.4092C153.162 14.726 152.931 14.9706 152.839 15.143C152.747 15.2868 152.61 15.6604 152.427 16.2637C152.03 17.5852 151.832 18.6765 151.835 19.5377L151.836 19.8822L151.884 20.7863L152.207 20.7855C152.638 20.7844 154.007 20.2211 156.314 19.0955C158.774 17.9409 160.019 17.3636 160.05 17.3635C160.112 17.3633 160.143 17.4063 160.143 17.4924C160.174 17.5498 160.159 17.6359 160.097 17.7509C160.067 17.8371 160.021 17.9233 159.959 18.0096C159.806 18.1536 159.176 18.5284 158.069 19.1341C156.993 19.7397 155.855 20.3598 154.656 20.9945C153.457 21.6291 152.811 21.9753 152.719 22.0329C152.227 22.3212 151.935 22.5516 151.843 22.7241C151.782 22.8678 151.721 23.3273 151.662 24.1025C151.452 26.3709 150.516 27.5072 148.853 27.5115C148.207 27.5132 147.021 27.2435 145.295 26.7026C144.463 26.4464 143.877 26.3187 143.539 26.3196C143.2 26.3204 142.892 26.3356 142.615 26.365C142.369 26.3944 142.076 26.4095 141.738 26.4103C141.43 26.4111 141.06 26.326 140.629 26.1549C140.135 25.9265 139.827 25.712 139.703 25.5114C139.456 25.1962 139.332 24.7947 139.331 24.3066C139.33 24.1344 139.345 24.0052 139.376 23.919C139.529 23.4306 139.836 23.1858 140.298 23.1846C140.482 23.1841 140.683 23.2554 140.899 23.3983C141.361 23.7129 142.008 23.8691 142.84 23.867C144.533 23.8626 146.702 23.2398 149.347 21.9986L150.362 21.5223L150.498 20.4454L151.501 15.7063C151.44 15.7064 149.841 16.6435 146.705 18.5176C142.924 20.7665 139.819 22.4682 137.389 23.6227C133.791 25.3257 130.93 26.2948 128.806 26.5299C128.621 26.5591 128.36 26.5741 128.021 26.575C127.128 26.5773 126.681 26.3775 126.68 25.9756C126.68 25.8608 126.695 25.7747 126.726 25.7172C126.848 25.4585 127.525 25.3276 128.757 25.3244C130.112 25.3209 131.558 25.0157 133.096 24.4089C138.725 22.2126 144.368 19.3705 150.024 15.8823L151.915 14.7579L152.512 13.5937C154.259 10.3454 156.807 7.55428 160.157 5.22039C162.647 3.49156 164.645 2.36684 166.153 1.84623Z"/>
<path d="M94.9862 21.9024C96.5215 20.2622 97.5198 19.341 97.9811 19.1388C98.4424 18.9367 98.8275 19.0075 99.1363 19.3512C99.2597 19.4657 99.3217 19.609 99.3222 19.7813C99.3233 20.2119 98.6175 21.1466 97.2049 22.5856C96.3757 23.4203 95.9612 23.895 95.9615 24.0098C95.9618 24.0959 96.0081 24.1389 96.1004 24.1386C96.3467 24.138 97.3156 23.7192 99.0069 22.8824C99.1914 22.7958 99.5297 22.637 100.022 22.4061C100.544 22.1464 100.944 21.9444 101.221 21.8002C101.529 21.6558 101.913 21.4826 102.374 21.2805C102.836 21.0496 103.22 20.8764 103.528 20.7608C103.866 20.6451 104.22 20.515 104.589 20.3705C104.989 20.2259 105.327 20.1246 105.604 20.0664C105.912 20.0082 106.174 19.9788 106.389 19.9783C106.913 19.9769 107.221 20.1627 107.314 20.5357C107.345 20.6217 107.361 20.7365 107.361 20.88C107.363 21.5116 106.719 22.5036 105.429 23.8561C104.324 25.036 103.726 25.8556 103.634 26.3152C103.604 26.5449 103.666 26.7026 103.82 26.7883C104.005 26.8453 104.205 26.8735 104.421 26.8729C105.283 26.8707 106.545 26.6521 108.206 26.2172C109.868 25.7823 111.252 25.2764 112.359 24.6994C113.128 24.3242 113.543 24.1366 113.605 24.1364C113.666 24.1362 113.697 24.1649 113.697 24.2223C113.698 24.538 112.791 25.1432 110.977 26.0378C107.441 27.7406 104.887 28.5941 103.317 28.5982C102.947 28.5991 102.578 28.5283 102.208 28.3857C101.591 28.129 101.282 27.5269 101.28 26.5796C101.277 25.661 101.767 24.6837 102.75 23.6478C103.303 23.0722 103.579 22.727 103.579 22.6122C103.578 22.5548 103.517 22.5262 103.394 22.5266C103.27 22.4982 103.101 22.513 102.886 22.5709C102.701 22.6001 102.501 22.6724 102.286 22.7878C101.302 23.2783 99.7648 24.244 97.6747 25.6847C95.7384 27.0389 94.3854 27.717 93.6157 27.719C92.9999 27.7206 92.5375 27.5209 92.2285 27.1198C92.1049 26.9478 92.0427 26.6896 92.0418 26.3452C92.0408 25.972 92.1169 25.6417 92.2702 25.3542C92.5764 24.6932 93.4817 23.5426 94.9862 21.9024Z"/>
<path d="M85.3372 20.4203C84.8446 20.4216 83.9985 20.6678 82.7989 21.1589C81.6302 21.6499 80.4771 22.2557 79.3397 22.9763C78.2023 23.6969 77.219 24.4602 76.3897 25.2661C75.5604 26.0433 75.1462 26.6042 75.1471 26.9487C75.1475 27.1209 75.2709 27.2067 75.5172 27.2061C76.0715 27.2046 77.102 26.8431 78.6089 26.1216C80.1465 25.3712 81.4992 24.5783 82.6671 23.7428C83.4969 23.1665 84.2036 22.5762 84.787 21.9719C85.4012 21.3387 85.708 20.9073 85.7074 20.6777C85.7069 20.5055 85.5836 20.4196 85.3372 20.4203ZM82.7429 17.3698C83.3585 17.2533 83.8817 17.1946 84.3128 17.1935C84.867 17.192 85.2674 17.2484 85.5141 17.3626C85.699 17.4482 85.8995 17.5912 86.1156 17.7916C86.6094 18.2497 87.2874 18.4776 88.1495 18.4753C88.5806 18.4742 88.9192 18.459 89.1655 18.4296C89.9042 18.3129 90.3505 18.283 90.5046 18.3401C90.6587 18.3971 90.8131 18.5689 90.9678 18.8556C91.1533 19.1134 91.2308 19.3429 91.2006 19.5439L91.2014 19.8884L89.5852 19.9787C89.3389 19.9793 89.0464 19.9944 88.7078 20.024C88.3999 20.0248 88.1997 20.0253 88.1074 20.0256C88.0458 20.0257 87.9381 20.0547 87.7843 20.1125C87.6613 20.1703 87.5691 20.2423 87.5077 20.3286C87.4463 20.3861 87.3389 20.5156 87.1854 20.7169C86.8479 21.1484 86.1876 21.8103 85.2046 22.7028C84.2524 23.5952 83.469 24.2861 82.8545 24.7757C81.4716 25.8127 80.0268 26.7207 78.5201 27.4997C77.0133 28.2787 75.9213 28.669 75.2439 28.6708C74.782 28.672 74.4122 28.5438 74.1345 28.2861C73.8874 27.9997 73.7633 27.6412 73.7622 27.2106C73.7613 26.8661 73.8221 26.5646 73.9446 26.3059C74.434 25.0415 75.9847 23.43 78.5968 21.4712C79.8567 20.4919 80.5327 19.9447 80.6248 19.8296C80.7168 19.7146 80.7624 19.4705 80.7614 19.0973C80.7592 18.2361 81.4197 17.6603 82.7429 17.3698Z"/>
<path d="M52.2202 18.2238C52.5587 18.1368 52.8511 18.093 53.0974 18.0924C53.9904 18.0901 54.4382 18.62 54.4409 19.6821C54.4411 19.7395 54.4259 19.8257 54.3954 19.9406C54.3957 20.0554 54.3959 20.1415 54.3961 20.1989C54.3962 20.2564 54.3811 20.3425 54.3506 20.4574C54.3508 20.5435 54.3509 20.6009 54.351 20.6297C54.3515 20.8306 54.4288 20.9309 54.5827 20.9305C54.7367 20.9301 55.1212 20.7855 55.7362 20.4969C58.0122 19.515 59.5658 19.023 60.3972 19.0208C61.2593 19.0186 61.6912 19.3476 61.6929 20.0078C61.6954 20.9551 61.0058 22.1913 59.6242 23.7163C58.9487 24.4644 58.6111 24.8672 58.6112 24.9246C58.6114 25.0107 58.7347 25.0535 58.981 25.0528C59.4121 25.0517 60.7959 24.3735 63.1325 23.0183C65.1616 21.8361 66.5764 21.2439 67.377 21.2418C67.6541 21.2411 67.8698 21.3123 68.0241 21.4555C68.1784 21.5986 68.2558 21.7419 68.2562 21.8855C68.2569 22.1725 67.6437 23.1645 66.4164 24.8613C65.7414 25.7817 65.4042 26.3567 65.4048 26.5863C65.4052 26.7299 65.4208 26.8159 65.4517 26.8446C65.5133 26.8731 65.6519 26.8871 65.8674 26.8866C66.514 26.8849 67.391 26.6673 68.4983 26.2339C69.6056 25.7717 70.5897 25.3098 71.4506 24.8483C72.3424 24.3867 72.819 24.1558 72.8806 24.1557C72.9114 24.1556 72.7734 24.3856 72.4667 24.8457C72.0985 25.3346 71.4993 25.8098 70.6692 26.2713C67.8406 27.8862 65.8567 28.6951 64.7175 28.698C64.6867 28.6981 64.6405 28.6982 64.5789 28.6984C64.5173 28.6699 64.4711 28.6556 64.4403 28.6557C63.6701 28.5142 63.2842 28.1133 63.2825 27.453C63.2804 26.6205 63.5553 25.7873 64.1074 24.9534C64.23 24.7522 64.322 24.594 64.3833 24.4791C64.4446 24.3641 64.4751 24.2779 64.475 24.2205C64.5055 24.1343 64.49 24.0769 64.4283 24.0483C64.3975 24.0197 64.3205 24.0056 64.1973 24.0059C63.8278 24.0068 63.2435 24.2667 62.4443 24.7855C62.3828 24.8144 62.2444 24.9008 62.0293 25.0449C61.8448 25.1602 61.5836 25.3331 61.2455 25.5637C60.9381 25.7941 60.6462 25.9958 60.3695 26.1688C58.1564 27.6385 56.6034 28.3746 55.7104 28.3769C55.2794 28.378 55.0019 28.2352 54.878 27.9484C54.7543 27.7478 54.6921 27.5183 54.6915 27.26C54.6893 26.4275 55.671 25.047 57.6366 23.1186C58.9574 21.8521 59.6174 21.0897 59.6167 20.8313L59.6165 20.7452L59.5701 20.6592C59.446 20.315 59.061 20.2443 58.4149 20.4469C56.9996 20.8525 55.0164 21.9484 52.4654 23.7348C49.9144 25.5212 48.0712 27.1192 46.9356 28.5288C46.69 28.8452 46.3826 29.0038 46.0131 29.0048C45.6436 29.0058 45.3353 28.8487 45.0881 28.5335C44.8719 28.247 44.8403 27.9313 44.9933 27.5865C45.0852 27.414 45.7151 26.8813 46.8828 25.9884C48.8186 24.4619 50.17 23.1523 50.937 22.0595C51.6424 20.9955 51.9945 20.2339 51.9933 19.7746C51.9928 19.5736 51.9309 19.4302 51.8075 19.3444C51.6842 19.2874 51.5917 19.2589 51.5301 19.259C51.1607 19.26 50.177 19.9084 48.5793 21.2044C47.7189 21.8668 47.2271 22.1982 47.1039 22.1986C47.0731 22.1986 47.0423 22.1844 47.0114 22.1557C46.8879 22.0125 46.8414 21.8978 46.872 21.8116C46.9333 21.7253 47.133 21.5239 47.4708 21.2072C49.1604 19.7101 50.7436 18.7157 52.2202 18.2238Z"/>
<path d="M40.9894 16.7458C40.4968 16.7471 39.7583 16.9356 38.774 17.3113C37.8205 17.687 36.9748 18.1197 36.2371 18.6097C35.8375 18.8691 35.3459 19.2722 34.7623 19.8191C34.2094 20.3373 33.8717 20.7113 33.7491 20.9413C33.5345 21.2864 33.535 21.4586 33.7505 21.458C33.8429 21.4578 34.1351 21.3566 34.6272 21.1543C35.1501 20.952 35.4423 20.8221 35.5037 20.7645C35.5959 20.6782 35.888 20.5195 36.38 20.2886C37.8253 19.5672 39.0244 18.8895 39.9773 18.2555C40.9301 17.5928 41.4062 17.1466 41.4056 16.917C41.4053 16.8021 41.2666 16.7451 40.9894 16.7458ZM40.063 15.6717C40.5244 15.527 40.9245 15.4542 41.2632 15.4533C42.2485 15.4507 42.742 15.7796 42.7437 16.4398C42.7439 16.526 42.7135 16.6552 42.6523 16.8276C42.5301 17.2011 41.9158 17.7768 40.8094 18.5548C39.7337 19.3039 38.5193 20.0391 37.1664 20.7602C37.0127 20.8468 36.8128 20.9477 36.5668 21.0632C36.3516 21.1786 36.1671 21.2795 36.0133 21.3661C35.8904 21.4525 35.8136 21.5101 35.7829 21.5389C35.66 21.654 35.2449 21.8704 34.5375 22.188C33.8302 22.5056 33.3073 22.7079 32.9688 22.7949C32.5996 22.9107 32.0925 23.2708 31.4475 23.8753C30.8332 24.4798 30.3882 25.0407 30.1124 25.5581C29.8368 26.133 29.6992 26.4921 29.6995 26.6357C29.7003 26.9227 29.9624 27.0656 30.4858 27.0642C31.5327 27.0615 33.1327 26.6268 35.2857 25.76C36.1778 25.4132 36.7006 25.1679 36.8542 25.0239L38.607 24.1582C39.8678 23.5521 40.944 22.9896 41.8356 22.4705C42.9425 21.8648 43.5267 21.5619 43.5883 21.5618C43.6191 21.5617 43.6346 21.5903 43.6347 21.6478C43.6361 22.1645 41.6995 23.4326 37.8252 25.452C35.3655 26.8363 33.0741 27.7895 30.9509 28.3118C30.397 28.4567 29.843 28.5299 29.2888 28.5314C28.7345 28.5328 28.3803 28.4619 28.226 28.3188C27.7941 28.0042 27.5773 27.5167 27.5756 26.8565L27.5749 26.5981C27.696 25.794 28.1555 24.8742 28.9533 23.8387C29.5364 23.0908 30.3501 22.1988 31.3942 21.1627C32.4384 20.1266 33.2986 19.3636 33.9747 18.8739C34.0362 18.8163 34.1283 18.7443 34.2513 18.6579C34.3742 18.5714 34.4818 18.4994 34.574 18.4417C34.6662 18.3554 34.7276 18.2978 34.7583 18.269C35.0654 17.9524 35.8033 17.5199 36.9719 16.9715C38.1404 16.3943 39.1708 15.9611 40.063 15.6717Z"/>
<path d="M24.9679 0.848014C25.2757 0.818511 25.8761 0.802605 26.769 0.800294C28.3701 0.796151 29.5249 0.836223 30.2333 0.92051C34.3913 1.42647 36.7354 2.97055 37.2655 5.55275C37.2966 5.6962 37.3126 5.92581 37.3134 6.24158C37.3163 7.36113 36.8886 8.63967 36.0302 10.0772C35.1717 11.486 34.0359 12.8238 32.6228 14.0906C31.2096 15.2999 29.1965 16.7261 26.5836 18.3691C23.2328 20.4733 19.8658 22.2188 16.4824 23.6055C10.4539 26.0898 7.36292 27.4183 7.20941 27.5909C7.14813 27.7059 7.1176 27.8065 7.11782 27.8926C7.11827 28.0648 7.18093 28.4809 7.3058 29.1408C7.39943 29.6286 7.20022 29.988 6.70817 30.2189C6.52365 30.3055 6.30816 30.3204 6.06169 30.2636C5.81514 30.1781 5.64542 30.035 5.55253 29.8343C5.45972 29.6623 5.41257 29.2893 5.41108 28.7152C5.40841 27.6817 5.49866 26.8634 5.68184 26.2601C6.04776 24.8812 7.02844 23.0989 8.62389 20.913C9.20683 20.1078 9.66705 19.475 10.0046 19.0148C10.3728 18.5259 10.7409 18.0082 11.109 17.4618C11.5079 16.9154 11.784 16.5415 11.9374 16.3401C12.1216 16.11 12.3517 15.7793 12.6276 15.348C12.9036 14.9167 13.0723 14.6579 13.1337 14.5716C13.195 14.4853 13.3637 14.2265 13.6397 13.7952C13.9156 13.3352 14.0689 13.0765 14.0996 13.019C14.1301 12.9328 14.314 12.6022 14.6512 12.0272C14.9884 11.4522 15.2184 11.064 15.341 10.8628C15.3716 10.8053 15.5096 10.5609 15.7548 10.1297C16 9.69845 16.1685 9.39659 16.2605 9.22412C16.3831 9.02286 16.5671 8.72096 16.8124 8.31844C17.0576 7.91591 17.257 7.61398 17.4104 7.41264C17.5946 7.21122 17.7942 6.98105 18.0091 6.72213C18.2239 6.46322 18.4082 6.27615 18.5618 6.16093C18.7463 6.04563 18.9155 5.98777 19.0694 5.98738C19.1618 5.98714 19.2543 6.02996 19.3469 6.11584C19.4703 6.20164 19.5325 6.44548 19.5335 6.84737C19.5349 7.39279 19.4439 7.92409 19.2605 8.44128C18.741 9.96407 18.0367 11.4443 17.1475 12.8819C16.2583 14.3195 14.8469 16.2465 12.9133 18.6628C10.2126 22.0572 8.86273 23.9697 8.86384 24.4003C8.86451 24.6586 8.94182 24.7876 9.09577 24.7872C9.18814 24.787 9.52658 24.6856 10.1111 24.4831C10.7263 24.2519 12.3102 23.5588 14.8628 22.404C17.4462 21.2203 19.2913 20.34 20.3983 19.763C28.7315 15.5216 33.5548 11.3467 34.8682 7.23828C35.021 6.80729 35.0968 6.36214 35.0956 5.90285C35.0933 4.98425 34.6295 4.25343 33.7044 3.7104C32.7793 3.16738 31.3311 2.78359 29.36 2.55904C28.5283 2.44636 27.1118 2.39261 25.1105 2.39779C23.1091 2.40297 21.4928 2.46457 20.2614 2.58258C15.9826 2.99554 12.6746 3.73612 10.3373 4.8043C9.81442 5.03531 9.44553 5.26591 9.2306 5.49612C9.01566 5.72633 8.75498 6.12889 8.44856 6.70381C7.89694 7.70997 7.17478 8.25726 6.28208 8.34569L6.05116 8.34628C5.21982 8.34844 4.80311 7.94762 4.80103 7.14385L4.80014 6.79937C4.89073 6.11019 5.19715 5.53526 5.71939 5.07461C6.27235 4.58517 7.16408 4.12356 8.39458 3.68978C12.0245 2.3886 17.5489 1.44134 24.9679 0.848014Z"/>
</mask>
<path d="M247.807 17.4306C247.808 17.7464 247.455 18.2927 246.749 19.0696C246.074 19.8465 245.398 20.5372 244.722 21.1417C244.077 21.7463 243.77 22.0485 243.801 22.0484C243.832 22.0483 243.77 22.1346 243.617 22.3072C243.494 22.4798 243.356 22.6811 243.203 22.9111C243.049 23.1125 242.973 23.2562 242.973 23.3423L243.019 23.4283C243.05 23.4569 243.127 23.4711 243.25 23.4708C243.928 23.469 245.665 22.6895 248.463 21.1321L250.078 20.2667C250.139 20.2665 250.17 20.3239 250.17 20.4387C250.171 20.7832 248.435 22.0651 244.961 24.2845C244.07 24.8896 243.239 25.1932 242.47 25.1952C242.069 25.1962 241.7 25.0536 241.36 24.7675C241.051 24.4812 240.897 24.1658 240.896 23.8214C240.895 23.4195 241.278 22.7582 242.045 21.8376C242.291 21.5212 242.536 21.2048 242.782 20.8884C243.058 20.5719 243.35 20.2267 243.657 19.8527C244.117 19.3061 244.316 18.9755 244.255 18.8608C244.162 18.7175 243.961 18.6463 243.654 18.6471C243.038 18.6487 242.33 18.8801 241.531 19.3415C239.901 20.3217 238.825 20.8125 238.302 20.8139L238.209 20.7711C238.178 20.7424 238.224 20.6706 238.347 20.5554C238.501 20.4402 238.762 20.2816 239.131 20.0797C239.5 19.8491 239.976 19.5608 240.561 19.2148C241.176 18.8688 241.944 18.4362 242.867 17.9171C243.174 17.744 243.328 17.6432 243.328 17.6145C243.297 17.5571 243.25 17.4998 243.189 17.4426C242.942 17.271 242.818 16.9986 242.817 16.6254C242.816 16.1661 242.984 15.8069 243.322 15.5476C243.537 15.3461 243.783 15.2019 244.06 15.1151C244.275 15.0284 244.491 14.9848 244.706 14.9843C245.107 14.9832 245.446 15.1115 245.723 15.3692C246.032 15.598 246.187 15.8703 246.187 16.1861C246.188 16.2722 246.157 16.4015 246.096 16.5739C246.035 16.7176 246.081 16.7892 246.235 16.7888C246.297 16.8174 246.451 16.817 246.697 16.7876L246.928 16.787C247.513 16.7855 247.806 17 247.807 17.4306Z" fill="#D7AB48"/>
<path d="M234.586 13.4172C234.093 13.4185 233.355 13.607 232.371 13.9827C231.417 14.3584 230.572 14.7912 229.834 15.2811C229.434 15.5405 228.943 15.9437 228.359 16.4906C227.806 17.0087 227.468 17.3828 227.346 17.6128C227.131 17.9578 227.132 18.13 227.347 18.1295C227.44 18.1292 227.732 18.028 228.224 17.8258C228.747 17.6235 229.039 17.4936 229.1 17.436C229.193 17.3496 229.485 17.191 229.977 16.9601C231.422 16.2387 232.621 15.561 233.574 14.9269C234.527 14.2642 235.003 13.8181 235.002 13.5884C235.002 13.4736 234.863 13.4165 234.586 13.4172ZM233.66 12.3431C234.121 12.1984 234.521 12.1256 234.86 12.1247C235.845 12.1222 236.339 12.451 236.34 13.1113C236.341 13.1974 236.31 13.3267 236.249 13.4991C236.127 13.8726 235.512 14.4483 234.406 15.2262C233.33 15.9754 232.116 16.7105 230.763 17.4317C230.609 17.5182 230.409 17.6192 230.163 17.7346C229.948 17.85 229.764 17.951 229.61 18.0375C229.487 18.1239 229.41 18.1815 229.38 18.2103C229.257 18.3255 228.842 18.5419 228.134 18.8595C227.427 19.1771 226.904 19.3794 226.565 19.4663C226.196 19.5821 225.689 19.9423 225.044 20.5468C224.43 21.1512 223.985 21.7121 223.709 22.2296C223.433 22.8044 223.296 23.1636 223.296 23.3071C223.297 23.5942 223.559 23.737 224.082 23.7357C225.129 23.733 226.729 23.2982 228.882 22.4315C229.774 22.0847 230.297 21.8393 230.451 21.6954L232.204 20.8297C233.464 20.2236 234.541 19.661 235.432 19.142C236.539 18.5363 237.123 18.2334 237.185 18.2332C237.216 18.2331 237.231 18.2618 237.231 18.3192C237.233 18.8359 235.296 20.104 231.422 22.1235C228.962 23.5078 226.671 24.461 224.548 24.9832C223.994 25.1282 223.44 25.2014 222.885 25.2028C222.331 25.2042 221.977 25.1334 221.823 24.9903C221.391 24.6756 221.174 24.1882 221.172 23.5279L221.172 23.2696C221.293 22.4655 221.752 21.5457 222.55 20.5102C223.133 19.7623 223.947 18.8703 224.991 17.8342C226.035 16.798 226.895 16.0351 227.571 15.5453C227.633 15.4877 227.725 15.4157 227.848 15.3293C227.971 15.2429 228.078 15.1708 228.171 15.1132C228.263 15.0268 228.324 14.9692 228.355 14.9405C228.662 14.6239 229.4 14.1914 230.569 13.6429C231.737 13.0658 232.767 12.6325 233.66 12.3431Z" fill="#D7AB48"/>
<path d="M209.672 27.5622C209.764 27.361 209.81 27.2604 209.81 27.2604C209.656 27.2608 209.057 27.6643 208.012 28.4708C206.998 29.2485 206.122 29.9827 205.385 30.6736C204.064 31.9114 203.404 32.7456 203.406 33.1762C203.406 33.2623 203.437 33.334 203.498 33.3912C203.529 33.4199 203.591 33.4341 203.683 33.4338C203.899 33.4333 204.329 33.1738 204.975 32.6554C205.589 32.1945 206.464 31.3454 207.6 30.1081C208.737 28.8708 209.427 28.0222 209.672 27.5622ZM210.519 15.6756C211.011 15.3298 211.349 15.1567 211.534 15.1562C211.595 15.1561 211.688 15.2132 211.811 15.3277C211.873 15.4424 211.904 15.5141 211.904 15.5428C211.905 15.7725 211.613 16.0603 211.029 16.4063C210.137 16.9253 209.262 17.5591 208.401 18.3077C207.572 19.0562 207.111 19.5885 207.02 19.9045C206.989 19.962 206.974 20.0338 206.974 20.1199C206.975 20.2921 207.067 20.378 207.252 20.3775C207.652 20.3765 208.913 19.8278 211.035 18.7315C213.495 17.462 214.956 16.8267 215.418 16.8255L215.51 16.8253C215.726 16.8534 215.849 16.8962 215.88 16.9535C215.942 17.0107 215.973 17.1685 215.973 17.4269C215.976 18.2881 215.395 19.768 214.23 21.8666C214.015 22.269 213.862 22.5708 213.77 22.772C213.678 22.9445 213.571 23.1457 213.449 23.3757C213.326 23.6056 213.25 23.7781 213.219 23.893L213.127 24.0224C213.158 24.0223 213.665 23.6909 214.649 23.0281C215.632 22.3366 216.739 21.6448 217.969 20.9526C219.198 20.2605 219.906 19.9142 220.09 19.9137L220.137 19.9136C220.322 20.0853 220.107 20.3299 219.492 20.6473C219.246 20.7914 218.37 21.3248 216.863 22.2473C215.357 23.1698 214.42 23.7607 214.051 24.02C213.067 24.7689 212.177 25.7042 211.379 26.8258C209.723 29.1553 208.219 30.9677 206.867 32.263C205.516 33.587 204.455 34.25 203.685 34.252C203.039 34.2536 202.715 34.0105 202.714 33.5225C202.713 33.2641 202.774 33.0056 202.896 32.7469C203.386 31.4826 205.229 29.7698 208.425 27.6085C209.409 26.9457 210.008 26.5136 210.223 26.3121C211.144 25.3337 212.294 23.3643 213.672 20.404C214.193 19.3405 214.453 18.6652 214.452 18.3781C214.451 18.2346 214.39 18.163 214.267 18.1633C213.897 18.1643 212.821 18.6981 211.038 19.7649C208.886 21.0622 207.425 21.7119 206.655 21.7139C206.532 21.7142 206.347 21.686 206.101 21.6292C205.638 21.5156 205.407 21.2004 205.405 20.6837C205.404 20.2244 205.864 19.5343 206.786 18.6133C207.738 17.6635 208.982 16.6843 210.519 15.6756Z" fill="#D7AB48"/>
<path d="M196.4 18.0876C196.246 18.088 195.846 18.1895 195.2 18.3921C193.447 18.9995 191.817 19.7644 190.31 20.6869C189.234 21.3499 188.22 22.142 187.268 23.063C186.347 23.984 185.825 24.703 185.703 25.2201C185.704 25.2488 185.704 25.2775 185.704 25.3062L185.658 25.3924C185.658 25.5073 185.735 25.5645 185.889 25.5641C186.197 25.5633 186.997 25.2167 188.288 24.5244C190.379 23.4282 192.316 22.2319 194.098 20.9354C195.911 19.639 196.818 18.8041 196.817 18.431C196.816 18.2013 196.677 18.0868 196.4 18.0876ZM196.35 16.4945C196.504 16.4367 196.981 16.4067 197.781 16.4047C198.428 16.4317 198.829 16.5311 198.983 16.703C199.137 16.9035 199.215 17.1473 199.216 17.4344C199.217 17.7789 199.125 17.9657 198.94 17.9949C198.448 18.111 198.433 18.3837 198.896 18.8131C199.328 19.1565 199.544 19.5291 199.546 19.931C199.546 20.0171 199.53 20.0746 199.5 20.1033C199.438 20.1896 198.732 20.8373 197.38 22.0465C195.199 23.9181 194.109 25.184 194.111 25.8442C194.111 25.959 194.127 26.0451 194.158 26.1025C194.189 26.1885 194.358 26.2311 194.666 26.2303C195.251 26.2288 196.051 26.0688 197.067 25.7504C199.466 24.9405 202.003 23.6852 204.677 21.9846C204.954 21.8116 205.154 21.7393 205.277 21.7677C205.431 21.7673 205.585 21.8817 205.74 22.111C205.771 22.1396 205.786 22.1826 205.787 22.2401C205.787 22.3262 205.157 22.7584 203.896 23.5367C199.039 26.5348 195.718 28.0505 193.932 28.0838L193.793 28.0841C192.685 28.087 192.083 27.4857 191.987 26.2803L191.987 25.9358C191.985 25.1608 192.26 24.4137 192.812 23.6946C193.272 23.0332 193.379 22.7028 193.133 22.7034C192.825 22.7042 191.227 23.7561 188.338 25.8592C187.078 26.781 186.217 27.3717 185.756 27.6313C185.233 27.9484 184.787 28.1074 184.418 28.1084C183.987 28.1095 183.601 27.8952 183.261 27.4655C183.045 27.1216 182.936 26.8204 182.936 26.5621C182.935 26.275 183.057 25.9015 183.302 25.4416C184.099 23.9755 185.911 22.2771 188.739 20.3465C191.567 18.3871 194.104 17.1031 196.35 16.4945Z" fill="#D7AB48"/>
<path d="M185.837 5.58454C185.837 5.49842 185.822 5.44105 185.791 5.41242C185.791 5.38371 185.76 5.35509 185.698 5.32654C185.667 5.29791 185.621 5.28368 185.56 5.28384C185.529 5.25521 185.436 5.2411 185.282 5.2415L185.005 5.24222C184.543 5.24341 184.005 5.38834 183.39 5.67699C182.406 6.08143 180.915 7.01824 178.917 8.48744C176.95 9.95656 175.291 11.3675 173.94 12.7202C171.145 15.4545 169.318 17.3108 168.458 18.289C167.23 19.7275 166.617 20.5042 166.617 20.619C166.617 20.6764 167.278 20.2872 168.6 19.4513C169.952 18.5866 171.351 17.6787 172.796 16.7277C174.24 15.7766 175.116 15.1859 175.424 14.9554C175.454 14.9266 175.577 14.8259 175.792 14.6531C176.007 14.4803 176.238 14.3074 176.484 14.1346C176.76 13.9329 177.022 13.7456 177.268 13.5727C178.958 12.3627 180.633 11.0522 182.292 9.64132C183.951 8.20171 184.995 7.16557 185.424 6.53292C185.731 6.10153 185.869 5.7854 185.837 5.58454ZM185.046 3.26137C185.754 3.05859 186.323 2.95664 186.754 2.95553C187.77 2.9529 188.387 3.20966 188.604 3.72581C188.635 3.78315 188.65 3.88358 188.651 4.02711C188.655 5.63466 185.184 8.97359 178.239 14.0439C175.873 15.8585 172.599 18.1635 168.419 20.9588C166.114 22.4862 164.9 23.4223 164.778 23.7671C164.655 24.1693 164.595 24.5283 164.596 24.8441C164.597 25.2747 164.675 25.5903 164.829 25.7908C165.107 26.1346 165.554 26.3057 166.17 26.3041L166.585 26.303C167.848 26.271 169.601 25.7354 171.846 24.6962C172.738 24.292 174.06 23.5996 175.813 22.619C177.596 21.6384 178.703 20.9896 179.133 20.6728C179.963 20.0965 180.486 19.8081 180.701 19.8075L180.748 19.8074C180.871 19.8358 180.933 19.9792 180.933 20.2375C180.934 20.4959 180.889 20.7113 180.797 20.8838C180.735 20.97 180.489 21.1286 180.059 21.3593C179.844 21.4747 178.814 22.0228 176.969 23.0036C171.68 25.8305 168.313 27.4181 166.866 27.7663C166.466 27.8821 165.912 27.941 165.204 27.9428C164.404 27.9449 163.849 27.8746 163.541 27.7318C162.986 27.4749 162.6 27.1601 162.384 26.7875C162.291 26.6155 162.244 26.2568 162.242 25.7114C162.241 25.166 162.286 24.7209 162.378 24.3762C162.926 22.2218 164.828 19.418 168.083 15.9648C170.232 13.6914 172.321 11.7053 174.349 10.0064C178.558 6.46457 182.124 4.21624 185.046 3.26137Z" fill="#D7AB48"/>
<path d="M150.276 24.1922C150.276 24.1348 150.276 24.063 150.276 23.9769C150.306 23.862 150.322 23.7902 150.321 23.7615C150.321 23.5031 150.244 23.3742 150.09 23.3746C149.966 23.3749 149.505 23.5627 148.705 23.9379C147.383 24.5729 146.722 25.0769 146.723 25.4501C146.724 25.7659 147.156 25.9801 148.018 26.0927C148.603 26.1773 149.065 26.133 149.403 25.9599C149.895 25.6716 150.186 25.0823 150.276 24.1922ZM166.525 3.09399C166.525 3.00787 166.433 2.96505 166.248 2.96553C165.878 2.96649 165.478 3.06799 165.048 3.27005C163.756 3.84753 162.019 4.97157 159.838 6.64219C157.656 8.31281 156.12 9.70904 155.23 10.8309C154.463 11.8089 154.08 12.4845 154.08 12.8577C154.081 12.9151 154.112 12.9437 154.173 12.9436C154.389 12.943 155.603 12.1217 157.815 10.4797C160.028 8.80903 162.133 7.12426 164.13 5.42541C165.727 4.12949 166.526 3.35235 166.525 3.09399ZM166.153 1.84623C166.583 1.73029 166.86 1.67216 166.984 1.67184C167.63 1.67017 167.954 1.91333 167.955 2.40134C167.957 2.91805 167.297 3.7953 165.976 5.0331C164.348 6.55875 160.906 9.15124 155.651 12.8106C154.79 13.4156 154.083 13.9485 153.53 14.4092C153.162 14.726 152.931 14.9706 152.839 15.143C152.747 15.2868 152.61 15.6604 152.427 16.2637C152.03 17.5852 151.832 18.6765 151.835 19.5377L151.836 19.8822L151.884 20.7863L152.207 20.7855C152.638 20.7844 154.007 20.2211 156.314 19.0955C158.774 17.9409 160.019 17.3636 160.05 17.3635C160.112 17.3633 160.143 17.4063 160.143 17.4924C160.174 17.5498 160.159 17.6359 160.097 17.7509C160.067 17.8371 160.021 17.9233 159.959 18.0096C159.806 18.1536 159.176 18.5284 158.069 19.1341C156.993 19.7397 155.855 20.3598 154.656 20.9945C153.457 21.6291 152.811 21.9753 152.719 22.0329C152.227 22.3212 151.935 22.5516 151.843 22.7241C151.782 22.8678 151.721 23.3273 151.662 24.1025C151.452 26.3709 150.516 27.5072 148.853 27.5115C148.207 27.5132 147.021 27.2435 145.295 26.7026C144.463 26.4464 143.877 26.3187 143.539 26.3196C143.2 26.3204 142.892 26.3356 142.615 26.365C142.369 26.3944 142.076 26.4095 141.738 26.4103C141.43 26.4111 141.06 26.326 140.629 26.1549C140.135 25.9265 139.827 25.712 139.703 25.5114C139.456 25.1962 139.332 24.7947 139.331 24.3066C139.33 24.1344 139.345 24.0052 139.376 23.919C139.529 23.4306 139.836 23.1858 140.298 23.1846C140.482 23.1841 140.683 23.2554 140.899 23.3983C141.361 23.7129 142.008 23.8691 142.84 23.867C144.533 23.8626 146.702 23.2398 149.347 21.9986L150.362 21.5223L150.498 20.4454L151.501 15.7063C151.44 15.7064 149.841 16.6435 146.705 18.5176C142.924 20.7665 139.819 22.4682 137.389 23.6227C133.791 25.3257 130.93 26.2948 128.806 26.5299C128.621 26.5591 128.36 26.5741 128.021 26.575C127.128 26.5773 126.681 26.3775 126.68 25.9756C126.68 25.8608 126.695 25.7747 126.726 25.7172C126.848 25.4585 127.525 25.3276 128.757 25.3244C130.112 25.3209 131.558 25.0157 133.096 24.4089C138.725 22.2126 144.368 19.3705 150.024 15.8823L151.915 14.7579L152.512 13.5937C154.259 10.3454 156.807 7.55428 160.157 5.22039C162.647 3.49156 164.645 2.36684 166.153 1.84623Z" fill="#D7AB48"/>
<path d="M94.9862 21.9024C96.5215 20.2622 97.5198 19.341 97.9811 19.1388C98.4424 18.9367 98.8275 19.0075 99.1363 19.3512C99.2597 19.4657 99.3217 19.609 99.3222 19.7813C99.3233 20.2119 98.6175 21.1466 97.2049 22.5856C96.3757 23.4203 95.9612 23.895 95.9615 24.0098C95.9618 24.0959 96.0081 24.1389 96.1004 24.1386C96.3467 24.138 97.3156 23.7192 99.0069 22.8824C99.1914 22.7958 99.5297 22.637 100.022 22.4061C100.544 22.1464 100.944 21.9444 101.221 21.8002C101.529 21.6558 101.913 21.4826 102.374 21.2805C102.836 21.0496 103.22 20.8764 103.528 20.7608C103.866 20.6451 104.22 20.515 104.589 20.3705C104.989 20.2259 105.327 20.1246 105.604 20.0664C105.912 20.0082 106.174 19.9788 106.389 19.9783C106.913 19.9769 107.221 20.1627 107.314 20.5357C107.345 20.6217 107.361 20.7365 107.361 20.88C107.363 21.5116 106.719 22.5036 105.429 23.8561C104.324 25.036 103.726 25.8556 103.634 26.3152C103.604 26.5449 103.666 26.7026 103.82 26.7883C104.005 26.8453 104.205 26.8735 104.421 26.8729C105.283 26.8707 106.545 26.6521 108.206 26.2172C109.868 25.7823 111.252 25.2764 112.359 24.6994C113.128 24.3242 113.543 24.1366 113.605 24.1364C113.666 24.1362 113.697 24.1649 113.697 24.2223C113.698 24.538 112.791 25.1432 110.977 26.0378C107.441 27.7406 104.887 28.5941 103.317 28.5982C102.947 28.5991 102.578 28.5283 102.208 28.3857C101.591 28.129 101.282 27.5269 101.28 26.5796C101.277 25.661 101.767 24.6837 102.75 23.6478C103.303 23.0722 103.579 22.727 103.579 22.6122C103.578 22.5548 103.517 22.5262 103.394 22.5266C103.27 22.4982 103.101 22.513 102.886 22.5709C102.701 22.6001 102.501 22.6724 102.286 22.7878C101.302 23.2783 99.7648 24.244 97.6747 25.6847C95.7384 27.0389 94.3854 27.717 93.6157 27.719C92.9999 27.7206 92.5375 27.5209 92.2285 27.1198C92.1049 26.9478 92.0427 26.6896 92.0418 26.3452C92.0408 25.972 92.1169 25.6417 92.2702 25.3542C92.5764 24.6932 93.4817 23.5426 94.9862 21.9024Z" fill="#D7AB48"/>
<path d="M85.3372 20.4203C84.8446 20.4216 83.9985 20.6678 82.7989 21.1589C81.6302 21.6499 80.4771 22.2557 79.3397 22.9763C78.2023 23.6969 77.219 24.4602 76.3897 25.2661C75.5604 26.0433 75.1462 26.6042 75.1471 26.9487C75.1475 27.1209 75.2709 27.2067 75.5172 27.2061C76.0715 27.2046 77.102 26.8431 78.6089 26.1216C80.1465 25.3712 81.4992 24.5783 82.6671 23.7428C83.4969 23.1665 84.2036 22.5762 84.787 21.9719C85.4012 21.3387 85.708 20.9073 85.7074 20.6777C85.7069 20.5055 85.5836 20.4196 85.3372 20.4203ZM82.7429 17.3698C83.3585 17.2533 83.8817 17.1946 84.3128 17.1935C84.867 17.192 85.2674 17.2484 85.5141 17.3626C85.699 17.4482 85.8995 17.5912 86.1156 17.7916C86.6094 18.2497 87.2874 18.4776 88.1495 18.4753C88.5806 18.4742 88.9192 18.459 89.1655 18.4296C89.9042 18.3129 90.3505 18.283 90.5046 18.3401C90.6587 18.3971 90.8131 18.5689 90.9678 18.8556C91.1533 19.1134 91.2308 19.3429 91.2006 19.5439L91.2014 19.8884L89.5852 19.9787C89.3389 19.9793 89.0464 19.9944 88.7078 20.024C88.3999 20.0248 88.1997 20.0253 88.1074 20.0256C88.0458 20.0257 87.9381 20.0547 87.7843 20.1125C87.6613 20.1703 87.5691 20.2423 87.5077 20.3286C87.4463 20.3861 87.3389 20.5156 87.1854 20.7169C86.8479 21.1484 86.1876 21.8103 85.2046 22.7028C84.2524 23.5952 83.469 24.2861 82.8545 24.7757C81.4716 25.8127 80.0268 26.7207 78.5201 27.4997C77.0133 28.2787 75.9213 28.669 75.2439 28.6708C74.782 28.672 74.4122 28.5438 74.1345 28.2861C73.8874 27.9997 73.7633 27.6412 73.7622 27.2106C73.7613 26.8661 73.8221 26.5646 73.9446 26.3059C74.434 25.0415 75.9847 23.43 78.5968 21.4712C79.8567 20.4919 80.5327 19.9447 80.6248 19.8296C80.7168 19.7146 80.7624 19.4705 80.7614 19.0973C80.7592 18.2361 81.4197 17.6603 82.7429 17.3698Z" fill="#D7AB48"/>
<path d="M52.2202 18.2238C52.5587 18.1368 52.8511 18.093 53.0974 18.0924C53.9904 18.0901 54.4382 18.62 54.4409 19.6821C54.4411 19.7395 54.4259 19.8257 54.3954 19.9406C54.3957 20.0554 54.3959 20.1415 54.3961 20.1989C54.3962 20.2564 54.3811 20.3425 54.3506 20.4574C54.3508 20.5435 54.3509 20.6009 54.351 20.6297C54.3515 20.8306 54.4288 20.9309 54.5827 20.9305C54.7367 20.9301 55.1212 20.7855 55.7362 20.4969C58.0122 19.515 59.5658 19.023 60.3972 19.0208C61.2593 19.0186 61.6912 19.3476 61.6929 20.0078C61.6954 20.9551 61.0058 22.1913 59.6242 23.7163C58.9487 24.4644 58.6111 24.8672 58.6112 24.9246C58.6114 25.0107 58.7347 25.0535 58.981 25.0528C59.4121 25.0517 60.7959 24.3735 63.1325 23.0183C65.1616 21.8361 66.5764 21.2439 67.377 21.2418C67.6541 21.2411 67.8698 21.3123 68.0241 21.4555C68.1784 21.5986 68.2558 21.7419 68.2562 21.8855C68.2569 22.1725 67.6437 23.1645 66.4164 24.8613C65.7414 25.7817 65.4042 26.3567 65.4048 26.5863C65.4052 26.7299 65.4208 26.8159 65.4517 26.8446C65.5133 26.8731 65.6519 26.8871 65.8674 26.8866C66.514 26.8849 67.391 26.6673 68.4983 26.2339C69.6056 25.7717 70.5897 25.3098 71.4506 24.8483C72.3424 24.3867 72.819 24.1558 72.8806 24.1557C72.9114 24.1556 72.7734 24.3856 72.4667 24.8457C72.0985 25.3346 71.4993 25.8098 70.6692 26.2713C67.8406 27.8862 65.8567 28.6951 64.7175 28.698C64.6867 28.6981 64.6405 28.6982 64.5789 28.6984C64.5173 28.6699 64.4711 28.6556 64.4403 28.6557C63.6701 28.5142 63.2842 28.1133 63.2825 27.453C63.2804 26.6205 63.5553 25.7873 64.1074 24.9534C64.23 24.7522 64.322 24.594 64.3833 24.4791C64.4446 24.3641 64.4751 24.2779 64.475 24.2205C64.5055 24.1343 64.49 24.0769 64.4283 24.0483C64.3975 24.0197 64.3205 24.0056 64.1973 24.0059C63.8278 24.0068 63.2435 24.2667 62.4443 24.7855C62.3828 24.8144 62.2444 24.9008 62.0293 25.0449C61.8448 25.1602 61.5836 25.3331 61.2455 25.5637C60.9381 25.7941 60.6462 25.9958 60.3695 26.1688C58.1564 27.6385 56.6034 28.3746 55.7104 28.3769C55.2794 28.378 55.0019 28.2352 54.878 27.9484C54.7543 27.7478 54.6921 27.5183 54.6915 27.26C54.6893 26.4275 55.671 25.047 57.6366 23.1186C58.9574 21.8521 59.6174 21.0897 59.6167 20.8313L59.6165 20.7452L59.5701 20.6592C59.446 20.315 59.061 20.2443 58.4149 20.4469C56.9996 20.8525 55.0164 21.9484 52.4654 23.7348C49.9144 25.5212 48.0712 27.1192 46.9356 28.5288C46.69 28.8452 46.3826 29.0038 46.0131 29.0048C45.6436 29.0058 45.3353 28.8487 45.0881 28.5335C44.8719 28.247 44.8403 27.9313 44.9933 27.5865C45.0852 27.414 45.7151 26.8813 46.8828 25.9884C48.8186 24.4619 50.17 23.1523 50.937 22.0595C51.6424 20.9955 51.9945 20.2339 51.9933 19.7746C51.9928 19.5736 51.9309 19.4302 51.8075 19.3444C51.6842 19.2874 51.5917 19.2589 51.5301 19.259C51.1607 19.26 50.177 19.9084 48.5793 21.2044C47.7189 21.8668 47.2271 22.1982 47.1039 22.1986C47.0731 22.1986 47.0423 22.1844 47.0114 22.1557C46.8879 22.0125 46.8414 21.8978 46.872 21.8116C46.9333 21.7253 47.133 21.5239 47.4708 21.2072C49.1604 19.7101 50.7436 18.7157 52.2202 18.2238Z" fill="#D7AB48"/>
<path d="M40.9894 16.7458C40.4968 16.7471 39.7583 16.9356 38.774 17.3113C37.8205 17.687 36.9748 18.1197 36.2371 18.6097C35.8375 18.8691 35.3459 19.2722 34.7623 19.8191C34.2094 20.3373 33.8717 20.7113 33.7491 20.9413C33.5345 21.2864 33.535 21.4586 33.7505 21.458C33.8429 21.4578 34.1351 21.3566 34.6272 21.1543C35.1501 20.952 35.4423 20.8221 35.5037 20.7645C35.5959 20.6782 35.888 20.5195 36.38 20.2886C37.8253 19.5672 39.0244 18.8895 39.9773 18.2555C40.9301 17.5928 41.4062 17.1466 41.4056 16.917C41.4053 16.8021 41.2666 16.7451 40.9894 16.7458ZM40.063 15.6717C40.5244 15.527 40.9245 15.4542 41.2632 15.4533C42.2485 15.4507 42.742 15.7796 42.7437 16.4398C42.7439 16.526 42.7135 16.6552 42.6523 16.8276C42.5301 17.2011 41.9158 17.7768 40.8094 18.5548C39.7337 19.3039 38.5193 20.0391 37.1664 20.7602C37.0127 20.8468 36.8128 20.9477 36.5668 21.0632C36.3516 21.1786 36.1671 21.2795 36.0133 21.3661C35.8904 21.4525 35.8136 21.5101 35.7829 21.5389C35.66 21.654 35.2449 21.8704 34.5375 22.188C33.8302 22.5056 33.3073 22.7079 32.9688 22.7949C32.5996 22.9107 32.0925 23.2708 31.4475 23.8753C30.8332 24.4798 30.3882 25.0407 30.1124 25.5581C29.8368 26.133 29.6992 26.4921 29.6995 26.6357C29.7003 26.9227 29.9624 27.0656 30.4858 27.0642C31.5327 27.0615 33.1327 26.6268 35.2857 25.76C36.1778 25.4132 36.7006 25.1679 36.8542 25.0239L38.607 24.1582C39.8678 23.5521 40.944 22.9896 41.8356 22.4705C42.9425 21.8648 43.5267 21.5619 43.5883 21.5618C43.6191 21.5617 43.6346 21.5903 43.6347 21.6478C43.6361 22.1645 41.6995 23.4326 37.8252 25.452C35.3655 26.8363 33.0741 27.7895 30.9509 28.3118C30.397 28.4567 29.843 28.5299 29.2888 28.5314C28.7345 28.5328 28.3803 28.4619 28.226 28.3188C27.7941 28.0042 27.5773 27.5167 27.5756 26.8565L27.5749 26.5981C27.696 25.794 28.1555 24.8742 28.9533 23.8387C29.5364 23.0908 30.3501 22.1988 31.3942 21.1627C32.4384 20.1266 33.2986 19.3636 33.9747 18.8739C34.0362 18.8163 34.1283 18.7443 34.2513 18.6579C34.3742 18.5714 34.4818 18.4994 34.574 18.4417C34.6662 18.3554 34.7276 18.2978 34.7583 18.269C35.0654 17.9524 35.8033 17.5199 36.9719 16.9715C38.1404 16.3943 39.1708 15.9611 40.063 15.6717Z" fill="#D7AB48"/>
<path d="M24.9679 0.848014C25.2757 0.818511 25.8761 0.802605 26.769 0.800294C28.3701 0.796151 29.5249 0.836223 30.2333 0.92051C34.3913 1.42647 36.7354 2.97055 37.2655 5.55275C37.2966 5.6962 37.3126 5.92581 37.3134 6.24158C37.3163 7.36113 36.8886 8.63967 36.0302 10.0772C35.1717 11.486 34.0359 12.8238 32.6228 14.0906C31.2096 15.2999 29.1965 16.7261 26.5836 18.3691C23.2328 20.4733 19.8658 22.2188 16.4824 23.6055C10.4539 26.0898 7.36292 27.4183 7.20941 27.5909C7.14813 27.7059 7.1176 27.8065 7.11782 27.8926C7.11827 28.0648 7.18093 28.4809 7.3058 29.1408C7.39943 29.6286 7.20022 29.988 6.70817 30.2189C6.52365 30.3055 6.30816 30.3204 6.06169 30.2636C5.81514 30.1781 5.64542 30.035 5.55253 29.8343C5.45972 29.6623 5.41257 29.2893 5.41108 28.7152C5.40841 27.6817 5.49866 26.8634 5.68184 26.2601C6.04776 24.8812 7.02844 23.0989 8.62389 20.913C9.20683 20.1078 9.66705 19.475 10.0046 19.0148C10.3728 18.5259 10.7409 18.0082 11.109 17.4618C11.5079 16.9154 11.784 16.5415 11.9374 16.3401C12.1216 16.11 12.3517 15.7793 12.6276 15.348C12.9036 14.9167 13.0723 14.6579 13.1337 14.5716C13.195 14.4853 13.3637 14.2265 13.6397 13.7952C13.9156 13.3352 14.0689 13.0765 14.0996 13.019C14.1301 12.9328 14.314 12.6022 14.6512 12.0272C14.9884 11.4522 15.2184 11.064 15.341 10.8628C15.3716 10.8053 15.5096 10.5609 15.7548 10.1297C16 9.69845 16.1685 9.39659 16.2605 9.22412C16.3831 9.02286 16.5671 8.72096 16.8124 8.31844C17.0576 7.91591 17.257 7.61398 17.4104 7.41264C17.5946 7.21122 17.7942 6.98105 18.0091 6.72213C18.2239 6.46322 18.4082 6.27615 18.5618 6.16093C18.7463 6.04563 18.9155 5.98777 19.0694 5.98738C19.1618 5.98714 19.2543 6.02996 19.3469 6.11584C19.4703 6.20164 19.5325 6.44548 19.5335 6.84737C19.5349 7.39279 19.4439 7.92409 19.2605 8.44128C18.741 9.96407 18.0367 11.4443 17.1475 12.8819C16.2583 14.3195 14.8469 16.2465 12.9133 18.6628C10.2126 22.0572 8.86273 23.9697 8.86384 24.4003C8.86451 24.6586 8.94182 24.7876 9.09577 24.7872C9.18814 24.787 9.52658 24.6856 10.1111 24.4831C10.7263 24.2519 12.3102 23.5588 14.8628 22.404C17.4462 21.2203 19.2913 20.34 20.3983 19.763C28.7315 15.5216 33.5548 11.3467 34.8682 7.23828C35.021 6.80729 35.0968 6.36214 35.0956 5.90285C35.0933 4.98425 34.6295 4.25343 33.7044 3.7104C32.7793 3.16738 31.3311 2.78359 29.36 2.55904C28.5283 2.44636 27.1118 2.39261 25.1105 2.39779C23.1091 2.40297 21.4928 2.46457 20.2614 2.58258C15.9826 2.99554 12.6746 3.73612 10.3373 4.8043C9.81442 5.03531 9.44553 5.26591 9.2306 5.49612C9.01566 5.72633 8.75498 6.12889 8.44856 6.70381C7.89694 7.70997 7.17478 8.25726 6.28208 8.34569L6.05116 8.34628C5.21982 8.34844 4.80311 7.94762 4.80103 7.14385L4.80014 6.79937C4.89073 6.11019 5.19715 5.53526 5.71939 5.07461C6.27235 4.58517 7.16408 4.12356 8.39458 3.68978C12.0245 2.3886 17.5489 1.44134 24.9679 0.848014Z" fill="#D7AB48"/>
<path d="M247.807 17.4306C247.808 17.7464 247.455 18.2927 246.749 19.0696C246.074 19.8465 245.398 20.5372 244.722 21.1417C244.077 21.7463 243.77 22.0485 243.801 22.0484C243.832 22.0483 243.77 22.1346 243.617 22.3072C243.494 22.4798 243.356 22.6811 243.203 22.9111C243.049 23.1125 242.973 23.2562 242.973 23.3423L243.019 23.4283C243.05 23.4569 243.127 23.4711 243.25 23.4708C243.928 23.469 245.665 22.6895 248.463 21.1321L250.078 20.2667C250.139 20.2665 250.17 20.3239 250.17 20.4387C250.171 20.7832 248.435 22.0651 244.961 24.2845C244.07 24.8896 243.239 25.1932 242.47 25.1952C242.069 25.1962 241.7 25.0536 241.36 24.7675C241.051 24.4812 240.897 24.1658 240.896 23.8214C240.895 23.4195 241.278 22.7582 242.045 21.8376C242.291 21.5212 242.536 21.2048 242.782 20.8884C243.058 20.5719 243.35 20.2267 243.657 19.8527C244.117 19.3061 244.316 18.9755 244.255 18.8608C244.162 18.7175 243.961 18.6463 243.654 18.6471C243.038 18.6487 242.33 18.8801 241.531 19.3415C239.901 20.3217 238.825 20.8125 238.302 20.8139L238.209 20.7711C238.178 20.7424 238.224 20.6706 238.347 20.5554C238.501 20.4402 238.762 20.2816 239.131 20.0797C239.5 19.8491 239.976 19.5608 240.561 19.2148C241.176 18.8688 241.944 18.4362 242.867 17.9171C243.174 17.744 243.328 17.6432 243.328 17.6145C243.297 17.5571 243.25 17.4998 243.189 17.4426C242.942 17.271 242.818 16.9986 242.817 16.6254C242.816 16.1661 242.984 15.8069 243.322 15.5476C243.537 15.3461 243.783 15.2019 244.06 15.1151C244.275 15.0284 244.491 14.9848 244.706 14.9843C245.107 14.9832 245.446 15.1115 245.723 15.3692C246.032 15.598 246.187 15.8703 246.187 16.1861C246.188 16.2722 246.157 16.4015 246.096 16.5739C246.035 16.7176 246.081 16.7892 246.235 16.7888C246.297 16.8174 246.451 16.817 246.697 16.7876L246.928 16.787C247.513 16.7855 247.806 17 247.807 17.4306Z" stroke="#4F3600" stroke-width="1.6" mask="url(#path-1-outside-1_6_16)"/>
<path d="M234.586 13.4172C234.093 13.4185 233.355 13.607 232.371 13.9827C231.417 14.3584 230.572 14.7912 229.834 15.2811C229.434 15.5405 228.943 15.9437 228.359 16.4906C227.806 17.0087 227.468 17.3828 227.346 17.6128C227.131 17.9578 227.132 18.13 227.347 18.1295C227.44 18.1292 227.732 18.028 228.224 17.8258C228.747 17.6235 229.039 17.4936 229.1 17.436C229.193 17.3496 229.485 17.191 229.977 16.9601C231.422 16.2387 232.621 15.561 233.574 14.9269C234.527 14.2642 235.003 13.8181 235.002 13.5884C235.002 13.4736 234.863 13.4165 234.586 13.4172ZM233.66 12.3431C234.121 12.1984 234.521 12.1256 234.86 12.1247C235.845 12.1222 236.339 12.451 236.34 13.1113C236.341 13.1974 236.31 13.3267 236.249 13.4991C236.127 13.8726 235.512 14.4483 234.406 15.2262C233.33 15.9754 232.116 16.7105 230.763 17.4317C230.609 17.5182 230.409 17.6192 230.163 17.7346C229.948 17.85 229.764 17.951 229.61 18.0375C229.487 18.1239 229.41 18.1815 229.38 18.2103C229.257 18.3255 228.842 18.5419 228.134 18.8595C227.427 19.1771 226.904 19.3794 226.565 19.4663C226.196 19.5821 225.689 19.9423 225.044 20.5468C224.43 21.1512 223.985 21.7121 223.709 22.2296C223.433 22.8044 223.296 23.1636 223.296 23.3071C223.297 23.5942 223.559 23.737 224.082 23.7357C225.129 23.733 226.729 23.2982 228.882 22.4315C229.774 22.0847 230.297 21.8393 230.451 21.6954L232.204 20.8297C233.464 20.2236 234.541 19.661 235.432 19.142C236.539 18.5363 237.123 18.2334 237.185 18.2332C237.216 18.2331 237.231 18.2618 237.231 18.3192C237.233 18.8359 235.296 20.104 231.422 22.1235C228.962 23.5078 226.671 24.461 224.548 24.9832C223.994 25.1282 223.44 25.2014 222.885 25.2028C222.331 25.2042 221.977 25.1334 221.823 24.9903C221.391 24.6756 221.174 24.1882 221.172 23.5279L221.172 23.2696C221.293 22.4655 221.752 21.5457 222.55 20.5102C223.133 19.7623 223.947 18.8703 224.991 17.8342C226.035 16.798 226.895 16.0351 227.571 15.5453C227.633 15.4877 227.725 15.4157 227.848 15.3293C227.971 15.2429 228.078 15.1708 228.171 15.1132C228.263 15.0268 228.324 14.9692 228.355 14.9405C228.662 14.6239 229.4 14.1914 230.569 13.6429C231.737 13.0658 232.767 12.6325 233.66 12.3431Z" stroke="#4F3600" stroke-width="1.6" mask="url(#path-1-outside-1_6_16)"/>
<path d="M209.672 27.5622C209.764 27.361 209.81 27.2604 209.81 27.2604C209.656 27.2608 209.057 27.6643 208.012 28.4708C206.998 29.2485 206.122 29.9827 205.385 30.6736C204.064 31.9114 203.404 32.7456 203.406 33.1762C203.406 33.2623 203.437 33.334 203.498 33.3912C203.529 33.4199 203.591 33.4341 203.683 33.4338C203.899 33.4333 204.329 33.1738 204.975 32.6554C205.589 32.1945 206.464 31.3454 207.6 30.1081C208.737 28.8708 209.427 28.0222 209.672 27.5622ZM210.519 15.6756C211.011 15.3298 211.349 15.1567 211.534 15.1562C211.595 15.1561 211.688 15.2132 211.811 15.3277C211.873 15.4424 211.904 15.5141 211.904 15.5428C211.905 15.7725 211.613 16.0603 211.029 16.4063C210.137 16.9253 209.262 17.5591 208.401 18.3077C207.572 19.0562 207.111 19.5885 207.02 19.9045C206.989 19.962 206.974 20.0338 206.974 20.1199C206.975 20.2921 207.067 20.378 207.252 20.3775C207.652 20.3765 208.913 19.8278 211.035 18.7315C213.495 17.462 214.956 16.8267 215.418 16.8255L215.51 16.8253C215.726 16.8534 215.849 16.8962 215.88 16.9535C215.942 17.0107 215.973 17.1685 215.973 17.4269C215.976 18.2881 215.395 19.768 214.23 21.8666C214.015 22.269 213.862 22.5708 213.77 22.772C213.678 22.9445 213.571 23.1457 213.449 23.3757C213.326 23.6056 213.25 23.7781 213.219 23.893L213.127 24.0224C213.158 24.0223 213.665 23.6909 214.649 23.0281C215.632 22.3366 216.739 21.6448 217.969 20.9526C219.198 20.2605 219.906 19.9142 220.09 19.9137L220.137 19.9136C220.322 20.0853 220.107 20.3299 219.492 20.6473C219.246 20.7914 218.37 21.3248 216.863 22.2473C215.357 23.1698 214.42 23.7607 214.051 24.02C213.067 24.7689 212.177 25.7042 211.379 26.8258C209.723 29.1553 208.219 30.9677 206.867 32.263C205.516 33.587 204.455 34.25 203.685 34.252C203.039 34.2536 202.715 34.0105 202.714 33.5225C202.713 33.2641 202.774 33.0056 202.896 32.7469C203.386 31.4826 205.229 29.7698 208.425 27.6085C209.409 26.9457 210.008 26.5136 210.223 26.3121C211.144 25.3337 212.294 23.3643 213.672 20.404C214.193 19.3405 214.453 18.6652 214.452 18.3781C214.451 18.2346 214.39 18.163 214.267 18.1633C213.897 18.1643 212.821 18.6981 211.038 19.7649C208.886 21.0622 207.425 21.7119 206.655 21.7139C206.532 21.7142 206.347 21.686 206.101 21.6292C205.638 21.5156 205.407 21.2004 205.405 20.6837C205.404 20.2244 205.864 19.5343 206.786 18.6133C207.738 17.6635 208.982 16.6843 210.519 15.6756Z" stroke="#4F3600" stroke-width="1.6" mask="url(#path-1-outside-1_6_16)"/>
<path d="M196.4 18.0876C196.246 18.088 195.846 18.1895 195.2 18.3921C193.447 18.9995 191.817 19.7644 190.31 20.6869C189.234 21.3499 188.22 22.142 187.268 23.063C186.347 23.984 185.825 24.703 185.703 25.2201C185.704 25.2488 185.704 25.2775 185.704 25.3062L185.658 25.3924C185.658 25.5073 185.735 25.5645 185.889 25.5641C186.197 25.5633 186.997 25.2167 188.288 24.5244C190.379 23.4282 192.316 22.2319 194.098 20.9354C195.911 19.639 196.818 18.8041 196.817 18.431C196.816 18.2013 196.677 18.0868 196.4 18.0876ZM196.35 16.4945C196.504 16.4367 196.981 16.4067 197.781 16.4047C198.428 16.4317 198.829 16.5311 198.983 16.703C199.137 16.9035 199.215 17.1473 199.216 17.4344C199.217 17.7789 199.125 17.9657 198.94 17.9949C198.448 18.111 198.433 18.3837 198.896 18.8131C199.328 19.1565 199.544 19.5291 199.546 19.931C199.546 20.0171 199.53 20.0746 199.5 20.1033C199.438 20.1896 198.732 20.8373 197.38 22.0465C195.199 23.9181 194.109 25.184 194.111 25.8442C194.111 25.959 194.127 26.0451 194.158 26.1025C194.189 26.1885 194.358 26.2311 194.666 26.2303C195.251 26.2288 196.051 26.0688 197.067 25.7504C199.466 24.9405 202.003 23.6852 204.677 21.9846C204.954 21.8116 205.154 21.7393 205.277 21.7677C205.431 21.7673 205.585 21.8817 205.74 22.111C205.771 22.1396 205.786 22.1826 205.787 22.2401C205.787 22.3262 205.157 22.7584 203.896 23.5367C199.039 26.5348 195.718 28.0505 193.932 28.0838L193.793 28.0841C192.685 28.087 192.083 27.4857 191.987 26.2803L191.987 25.9358C191.985 25.1608 192.26 24.4137 192.812 23.6946C193.272 23.0332 193.379 22.7028 193.133 22.7034C192.825 22.7042 191.227 23.7561 188.338 25.8592C187.078 26.781 186.217 27.3717 185.756 27.6313C185.233 27.9484 184.787 28.1074 184.418 28.1084C183.987 28.1095 183.601 27.8952 183.261 27.4655C183.045 27.1216 182.936 26.8204 182.936 26.5621C182.935 26.275 183.057 25.9015 183.302 25.4416C184.099 23.9755 185.911 22.2771 188.739 20.3465C191.567 18.3871 194.104 17.1031 196.35 16.4945Z" stroke="#4F3600" stroke-width="1.6" mask="url(#path-1-outside-1_6_16)"/>
<path d="M185.837 5.58454C185.837 5.49842 185.822 5.44105 185.791 5.41242C185.791 5.38371 185.76 5.35509 185.698 5.32654C185.667 5.29791 185.621 5.28368 185.56 5.28384C185.529 5.25521 185.436 5.2411 185.282 5.2415L185.005 5.24222C184.543 5.24341 184.005 5.38834 183.39 5.67699C182.406 6.08143 180.915 7.01824 178.917 8.48744C176.95 9.95656 175.291 11.3675 173.94 12.7202C171.145 15.4545 169.318 17.3108 168.458 18.289C167.23 19.7275 166.617 20.5042 166.617 20.619C166.617 20.6764 167.278 20.2872 168.6 19.4513C169.952 18.5866 171.351 17.6787 172.796 16.7277C174.24 15.7766 175.116 15.1859 175.424 14.9554C175.454 14.9266 175.577 14.8259 175.792 14.6531C176.007 14.4803 176.238 14.3074 176.484 14.1346C176.76 13.9329 177.022 13.7456 177.268 13.5727C178.958 12.3627 180.633 11.0522 182.292 9.64132C183.951 8.20171 184.995 7.16557 185.424 6.53292C185.731 6.10153 185.869 5.7854 185.837 5.58454ZM185.046 3.26137C185.754 3.05859 186.323 2.95664 186.754 2.95553C187.77 2.9529 188.387 3.20966 188.604 3.72581C188.635 3.78315 188.65 3.88358 188.651 4.02711C188.655 5.63466 185.184 8.97359 178.239 14.0439C175.873 15.8585 172.599 18.1635 168.419 20.9588C166.114 22.4862 164.9 23.4223 164.778 23.7671C164.655 24.1693 164.595 24.5283 164.596 24.8441C164.597 25.2747 164.675 25.5903 164.829 25.7908C165.107 26.1346 165.554 26.3057 166.17 26.3041L166.585 26.303C167.848 26.271 169.601 25.7354 171.846 24.6962C172.738 24.292 174.06 23.5996 175.813 22.619C177.596 21.6384 178.703 20.9896 179.133 20.6728C179.963 20.0965 180.486 19.8081 180.701 19.8075L180.748 19.8074C180.871 19.8358 180.933 19.9792 180.933 20.2375C180.934 20.4959 180.889 20.7113 180.797 20.8838C180.735 20.97 180.489 21.1286 180.059 21.3593C179.844 21.4747 178.814 22.0228 176.969 23.0036C171.68 25.8305 168.313 27.4181 166.866 27.7663C166.466 27.8821 165.912 27.941 165.204 27.9428C164.404 27.9449 163.849 27.8746 163.541 27.7318C162.986 27.4749 162.6 27.1601 162.384 26.7875C162.291 26.6155 162.244 26.2568 162.242 25.7114C162.241 25.166 162.286 24.7209 162.378 24.3762C162.926 22.2218 164.828 19.418 168.083 15.9648C170.232 13.6914 172.321 11.7053 174.349 10.0064C178.558 6.46457 182.124 4.21624 185.046 3.26137Z" stroke="#4F3600" stroke-width="1.6" mask="url(#path-1-outside-1_6_16)"/>
<path d="M150.276 24.1922C150.276 24.1348 150.276 24.063 150.276 23.9769C150.306 23.862 150.322 23.7902 150.321 23.7615C150.321 23.5031 150.244 23.3742 150.09 23.3746C149.966 23.3749 149.505 23.5627 148.705 23.9379C147.383 24.5729 146.722 25.0769 146.723 25.4501C146.724 25.7659 147.156 25.9801 148.018 26.0927C148.603 26.1773 149.065 26.133 149.403 25.9599C149.895 25.6716 150.186 25.0823 150.276 24.1922ZM166.525 3.09399C166.525 3.00787 166.433 2.96505 166.248 2.96553C165.878 2.96649 165.478 3.06799 165.048 3.27005C163.756 3.84753 162.019 4.97157 159.838 6.64219C157.656 8.31281 156.12 9.70904 155.23 10.8309C154.463 11.8089 154.08 12.4845 154.08 12.8577C154.081 12.9151 154.112 12.9437 154.173 12.9436C154.389 12.943 155.603 12.1217 157.815 10.4797C160.028 8.80903 162.133 7.12426 164.13 5.42541C165.727 4.12949 166.526 3.35235 166.525 3.09399ZM166.153 1.84623C166.583 1.73029 166.86 1.67216 166.984 1.67184C167.63 1.67017 167.954 1.91333 167.955 2.40134C167.957 2.91805 167.297 3.7953 165.976 5.0331C164.348 6.55875 160.906 9.15124 155.651 12.8106C154.79 13.4156 154.083 13.9485 153.53 14.4092C153.162 14.726 152.931 14.9706 152.839 15.143C152.747 15.2868 152.61 15.6604 152.427 16.2637C152.03 17.5852 151.832 18.6765 151.835 19.5377L151.836 19.8822L151.884 20.7863L152.207 20.7855C152.638 20.7844 154.007 20.2211 156.314 19.0955C158.774 17.9409 160.019 17.3636 160.05 17.3635C160.112 17.3633 160.143 17.4063 160.143 17.4924C160.174 17.5498 160.159 17.6359 160.097 17.7509C160.067 17.8371 160.021 17.9233 159.959 18.0096C159.806 18.1536 159.176 18.5284 158.069 19.1341C156.993 19.7397 155.855 20.3598 154.656 20.9945C153.457 21.6291 152.811 21.9753 152.719 22.0329C152.227 22.3212 151.935 22.5516 151.843 22.7241C151.782 22.8678 151.721 23.3273 151.662 24.1025C151.452 26.3709 150.516 27.5072 148.853 27.5115C148.207 27.5132 147.021 27.2435 145.295 26.7026C144.463 26.4464 143.877 26.3187 143.539 26.3196C143.2 26.3204 142.892 26.3356 142.615 26.365C142.369 26.3944 142.076 26.4095 141.738 26.4103C141.43 26.4111 141.06 26.326 140.629 26.1549C140.135 25.9265 139.827 25.712 139.703 25.5114C139.456 25.1962 139.332 24.7947 139.331 24.3066C139.33 24.1344 139.345 24.0052 139.376 23.919C139.529 23.4306 139.836 23.1858 140.298 23.1846C140.482 23.1841 140.683 23.2554 140.899 23.3983C141.361 23.7129 142.008 23.8691 142.84 23.867C144.533 23.8626 146.702 23.2398 149.347 21.9986L150.362 21.5223L150.498 20.4454L151.501 15.7063C151.44 15.7064 149.841 16.6435 146.705 18.5176C142.924 20.7665 139.819 22.4682 137.389 23.6227C133.791 25.3257 130.93 26.2948 128.806 26.5299C128.621 26.5591 128.36 26.5741 128.021 26.575C127.128 26.5773 126.681 26.3775 126.68 25.9756C126.68 25.8608 126.695 25.7747 126.726 25.7172C126.848 25.4585 127.525 25.3276 128.757 25.3244C130.112 25.3209 131.558 25.0157 133.096 24.4089C138.725 22.2126 144.368 19.3705 150.024 15.8823L151.915 14.7579L152.512 13.5937C154.259 10.3454 156.807 7.55428 160.157 5.22039C162.647 3.49156 164.645 2.36684 166.153 1.84623Z" stroke="#4F3600" stroke-width="1.6" mask="url(#path-1-outside-1_6_16)"/>
<path d="M94.9862 21.9024C96.5215 20.2622 97.5198 19.341 97.9811 19.1388C98.4424 18.9367 98.8275 19.0075 99.1363 19.3512C99.2597 19.4657 99.3217 19.609 99.3222 19.7813C99.3233 20.2119 98.6175 21.1466 97.2049 22.5856C96.3757 23.4203 95.9612 23.895 95.9615 24.0098C95.9618 24.0959 96.0081 24.1389 96.1004 24.1386C96.3467 24.138 97.3156 23.7192 99.0069 22.8824C99.1914 22.7958 99.5297 22.637 100.022 22.4061C100.544 22.1464 100.944 21.9444 101.221 21.8002C101.529 21.6558 101.913 21.4826 102.374 21.2805C102.836 21.0496 103.22 20.8764 103.528 20.7608C103.866 20.6451 104.22 20.515 104.589 20.3705C104.989 20.2259 105.327 20.1246 105.604 20.0664C105.912 20.0082 106.174 19.9788 106.389 19.9783C106.913 19.9769 107.221 20.1627 107.314 20.5357C107.345 20.6217 107.361 20.7365 107.361 20.88C107.363 21.5116 106.719 22.5036 105.429 23.8561C104.324 25.036 103.726 25.8556 103.634 26.3152C103.604 26.5449 103.666 26.7026 103.82 26.7883C104.005 26.8453 104.205 26.8735 104.421 26.8729C105.283 26.8707 106.545 26.6521 108.206 26.2172C109.868 25.7823 111.252 25.2764 112.359 24.6994C113.128 24.3242 113.543 24.1366 113.605 24.1364C113.666 24.1362 113.697 24.1649 113.697 24.2223C113.698 24.538 112.791 25.1432 110.977 26.0378C107.441 27.7406 104.887 28.5941 103.317 28.5982C102.947 28.5991 102.578 28.5283 102.208 28.3857C101.591 28.129 101.282 27.5269 101.28 26.5796C101.277 25.661 101.767 24.6837 102.75 23.6478C103.303 23.0722 103.579 22.727 103.579 22.6122C103.578 22.5548 103.517 22.5262 103.394 22.5266C103.27 22.4982 103.101 22.513 102.886 22.5709C102.701 22.6001 102.501 22.6724 102.286 22.7878C101.302 23.2783 99.7648 24.244 97.6747 25.6847C95.7384 27.0389 94.3854 27.717 93.6157 27.719C92.9999 27.7206 92.5375 27.5209 92.2285 27.1198C92.1049 26.9478 92.0427 26.6896 92.0418 26.3452C92.0408 25.972 92.1169 25.6417 92.2702 25.3542C92.5764 24.6932 93.4817 23.5426 94.9862 21.9024Z" stroke="#4F3600" stroke-width="1.6" mask="url(#path-1-outside-1_6_16)"/>
<path d="M85.3372 20.4203C84.8446 20.4216 83.9985 20.6678 82.7989 21.1589C81.6302 21.6499 80.4771 22.2557 79.3397 22.9763C78.2023 23.6969 77.219 24.4602 76.3897 25.2661C75.5604 26.0433 75.1462 26.6042 75.1471 26.9487C75.1475 27.1209 75.2709 27.2067 75.5172 27.2061C76.0715 27.2046 77.102 26.8431 78.6089 26.1216C80.1465 25.3712 81.4992 24.5783 82.6671 23.7428C83.4969 23.1665 84.2036 22.5762 84.787 21.9719C85.4012 21.3387 85.708 20.9073 85.7074 20.6777C85.7069 20.5055 85.5836 20.4196 85.3372 20.4203ZM82.7429 17.3698C83.3585 17.2533 83.8817 17.1946 84.3128 17.1935C84.867 17.192 85.2674 17.2484 85.5141 17.3626C85.699 17.4482 85.8995 17.5912 86.1156 17.7916C86.6094 18.2497 87.2874 18.4776 88.1495 18.4753C88.5806 18.4742 88.9192 18.459 89.1655 18.4296C89.9042 18.3129 90.3505 18.283 90.5046 18.3401C90.6587 18.3971 90.8131 18.5689 90.9678 18.8556C91.1533 19.1134 91.2308 19.3429 91.2006 19.5439L91.2014 19.8884L89.5852 19.9787C89.3389 19.9793 89.0464 19.9944 88.7078 20.024C88.3999 20.0248 88.1997 20.0253 88.1074 20.0256C88.0458 20.0257 87.9381 20.0547 87.7843 20.1125C87.6613 20.1703 87.5691 20.2423 87.5077 20.3286C87.4463 20.3861 87.3389 20.5156 87.1854 20.7169C86.8479 21.1484 86.1876 21.8103 85.2046 22.7028C84.2524 23.5952 83.469 24.2861 82.8545 24.7757C81.4716 25.8127 80.0268 26.7207 78.5201 27.4997C77.0133 28.2787 75.9213 28.669 75.2439 28.6708C74.782 28.672 74.4122 28.5438 74.1345 28.2861C73.8874 27.9997 73.7633 27.6412 73.7622 27.2106C73.7613 26.8661 73.8221 26.5646 73.9446 26.3059C74.434 25.0415 75.9847 23.43 78.5968 21.4712C79.8567 20.4919 80.5327 19.9447 80.6248 19.8296C80.7168 19.7146 80.7624 19.4705 80.7614 19.0973C80.7592 18.2361 81.4197 17.6603 82.7429 17.3698Z" stroke="#4F3600" stroke-width="1.6" mask="url(#path-1-outside-1_6_16)"/>
<path d="M52.2202 18.2238C52.5587 18.1368 52.8511 18.093 53.0974 18.0924C53.9904 18.0901 54.4382 18.62 54.4409 19.6821C54.4411 19.7395 54.4259 19.8257 54.3954 19.9406C54.3957 20.0554 54.3959 20.1415 54.3961 20.1989C54.3962 20.2564 54.3811 20.3425 54.3506 20.4574C54.3508 20.5435 54.3509 20.6009 54.351 20.6297C54.3515 20.8306 54.4288 20.9309 54.5827 20.9305C54.7367 20.9301 55.1212 20.7855 55.7362 20.4969C58.0122 19.515 59.5658 19.023 60.3972 19.0208C61.2593 19.0186 61.6912 19.3476 61.6929 20.0078C61.6954 20.9551 61.0058 22.1913 59.6242 23.7163C58.9487 24.4644 58.6111 24.8672 58.6112 24.9246C58.6114 25.0107 58.7347 25.0535 58.981 25.0528C59.4121 25.0517 60.7959 24.3735 63.1325 23.0183C65.1616 21.8361 66.5764 21.2439 67.377 21.2418C67.6541 21.2411 67.8698 21.3123 68.0241 21.4555C68.1784 21.5986 68.2558 21.7419 68.2562 21.8855C68.2569 22.1725 67.6437 23.1645 66.4164 24.8613C65.7414 25.7817 65.4042 26.3567 65.4048 26.5863C65.4052 26.7299 65.4208 26.8159 65.4517 26.8446C65.5133 26.8731 65.6519 26.8871 65.8674 26.8866C66.514 26.8849 67.391 26.6673 68.4983 26.2339C69.6056 25.7717 70.5897 25.3098 71.4506 24.8483C72.3424 24.3867 72.819 24.1558 72.8806 24.1557C72.9114 24.1556 72.7734 24.3856 72.4667 24.8457C72.0985 25.3346 71.4993 25.8098 70.6692 26.2713C67.8406 27.8862 65.8567 28.6951 64.7175 28.698C64.6867 28.6981 64.6405 28.6982 64.5789 28.6984C64.5173 28.6699 64.4711 28.6556 64.4403 28.6557C63.6701 28.5142 63.2842 28.1133 63.2825 27.453C63.2804 26.6205 63.5553 25.7873 64.1074 24.9534C64.23 24.7522 64.322 24.594 64.3833 24.4791C64.4446 24.3641 64.4751 24.2779 64.475 24.2205C64.5055 24.1343 64.49 24.0769 64.4283 24.0483C64.3975 24.0197 64.3205 24.0056 64.1973 24.0059C63.8278 24.0068 63.2435 24.2667 62.4443 24.7855C62.3828 24.8144 62.2444 24.9008 62.0293 25.0449C61.8448 25.1602 61.5836 25.3331 61.2455 25.5637C60.9381 25.7941 60.6462 25.9958 60.3695 26.1688C58.1564 27.6385 56.6034 28.3746 55.7104 28.3769C55.2794 28.378 55.0019 28.2352 54.878 27.9484C54.7543 27.7478 54.6921 27.5183 54.6915 27.26C54.6893 26.4275 55.671 25.047 57.6366 23.1186C58.9574 21.8521 59.6174 21.0897 59.6167 20.8313L59.6165 20.7452L59.5701 20.6592C59.446 20.315 59.061 20.2443 58.4149 20.4469C56.9996 20.8525 55.0164 21.9484 52.4654 23.7348C49.9144 25.5212 48.0712 27.1192 46.9356 28.5288C46.69 28.8452 46.3826 29.0038 46.0131 29.0048C45.6436 29.0058 45.3353 28.8487 45.0881 28.5335C44.8719 28.247 44.8403 27.9313 44.9933 27.5865C45.0852 27.414 45.7151 26.8813 46.8828 25.9884C48.8186 24.4619 50.17 23.1523 50.937 22.0595C51.6424 20.9955 51.9945 20.2339 51.9933 19.7746C51.9928 19.5736 51.9309 19.4302 51.8075 19.3444C51.6842 19.2874 51.5917 19.2589 51.5301 19.259C51.1607 19.26 50.177 19.9084 48.5793 21.2044C47.7189 21.8668 47.2271 22.1982 47.1039 22.1986C47.0731 22.1986 47.0423 22.1844 47.0114 22.1557C46.8879 22.0125 46.8414 21.8978 46.872 21.8116C46.9333 21.7253 47.133 21.5239 47.4708 21.2072C49.1604 19.7101 50.7436 18.7157 52.2202 18.2238Z" stroke="#4F3600" stroke-width="1.6" mask="url(#path-1-outside-1_6_16)"/>
<path d="M40.9894 16.7458C40.4968 16.7471 39.7583 16.9356 38.774 17.3113C37.8205 17.687 36.9748 18.1197 36.2371 18.6097C35.8375 18.8691 35.3459 19.2722 34.7623 19.8191C34.2094 20.3373 33.8717 20.7113 33.7491 20.9413C33.5345 21.2864 33.535 21.4586 33.7505 21.458C33.8429 21.4578 34.1351 21.3566 34.6272 21.1543C35.1501 20.952 35.4423 20.8221 35.5037 20.7645C35.5959 20.6782 35.888 20.5195 36.38 20.2886C37.8253 19.5672 39.0244 18.8895 39.9773 18.2555C40.9301 17.5928 41.4062 17.1466 41.4056 16.917C41.4053 16.8021 41.2666 16.7451 40.9894 16.7458ZM40.063 15.6717C40.5244 15.527 40.9245 15.4542 41.2632 15.4533C42.2485 15.4507 42.742 15.7796 42.7437 16.4398C42.7439 16.526 42.7135 16.6552 42.6523 16.8276C42.5301 17.2011 41.9158 17.7768 40.8094 18.5548C39.7337 19.3039 38.5193 20.0391 37.1664 20.7602C37.0127 20.8468 36.8128 20.9477 36.5668 21.0632C36.3516 21.1786 36.1671 21.2795 36.0133 21.3661C35.8904 21.4525 35.8136 21.5101 35.7829 21.5389C35.66 21.654 35.2449 21.8704 34.5375 22.188C33.8302 22.5056 33.3073 22.7079 32.9688 22.7949C32.5996 22.9107 32.0925 23.2708 31.4475 23.8753C30.8332 24.4798 30.3882 25.0407 30.1124 25.5581C29.8368 26.133 29.6992 26.4921 29.6995 26.6357C29.7003 26.9227 29.9624 27.0656 30.4858 27.0642C31.5327 27.0615 33.1327 26.6268 35.2857 25.76C36.1778 25.4132 36.7006 25.1679 36.8542 25.0239L38.607 24.1582C39.8678 23.5521 40.944 22.9896 41.8356 22.4705C42.9425 21.8648 43.5267 21.5619 43.5883 21.5618C43.6191 21.5617 43.6346 21.5903 43.6347 21.6478C43.6361 22.1645 41.6995 23.4326 37.8252 25.452C35.3655 26.8363 33.0741 27.7895 30.9509 28.3118C30.397 28.4567 29.843 28.5299 29.2888 28.5314C28.7345 28.5328 28.3803 28.4619 28.226 28.3188C27.7941 28.0042 27.5773 27.5167 27.5756 26.8565L27.5749 26.5981C27.696 25.794 28.1555 24.8742 28.9533 23.8387C29.5364 23.0908 30.3501 22.1988 31.3942 21.1627C32.4384 20.1266 33.2986 19.3636 33.9747 18.8739C34.0362 18.8163 34.1283 18.7443 34.2513 18.6579C34.3742 18.5714 34.4818 18.4994 34.574 18.4417C34.6662 18.3554 34.7276 18.2978 34.7583 18.269C35.0654 17.9524 35.8033 17.5199 36.9719 16.9715C38.1404 16.3943 39.1708 15.9611 40.063 15.6717Z" stroke="#4F3600" stroke-width="1.6" mask="url(#path-1-outside-1_6_16)"/>
<path d="M24.9679 0.848014C25.2757 0.818511 25.8761 0.802605 26.769 0.800294C28.3701 0.796151 29.5249 0.836223 30.2333 0.92051C34.3913 1.42647 36.7354 2.97055 37.2655 5.55275C37.2966 5.6962 37.3126 5.92581 37.3134 6.24158C37.3163 7.36113 36.8886 8.63967 36.0302 10.0772C35.1717 11.486 34.0359 12.8238 32.6228 14.0906C31.2096 15.2999 29.1965 16.7261 26.5836 18.3691C23.2328 20.4733 19.8658 22.2188 16.4824 23.6055C10.4539 26.0898 7.36292 27.4183 7.20941 27.5909C7.14813 27.7059 7.1176 27.8065 7.11782 27.8926C7.11827 28.0648 7.18093 28.4809 7.3058 29.1408C7.39943 29.6286 7.20022 29.988 6.70817 30.2189C6.52365 30.3055 6.30816 30.3204 6.06169 30.2636C5.81514 30.1781 5.64542 30.035 5.55253 29.8343C5.45972 29.6623 5.41257 29.2893 5.41108 28.7152C5.40841 27.6817 5.49866 26.8634 5.68184 26.2601C6.04776 24.8812 7.02844 23.0989 8.62389 20.913C9.20683 20.1078 9.66705 19.475 10.0046 19.0148C10.3728 18.5259 10.7409 18.0082 11.109 17.4618C11.5079 16.9154 11.784 16.5415 11.9374 16.3401C12.1216 16.11 12.3517 15.7793 12.6276 15.348C12.9036 14.9167 13.0723 14.6579 13.1337 14.5716C13.195 14.4853 13.3637 14.2265 13.6397 13.7952C13.9156 13.3352 14.0689 13.0765 14.0996 13.019C14.1301 12.9328 14.314 12.6022 14.6512 12.0272C14.9884 11.4522 15.2184 11.064 15.341 10.8628C15.3716 10.8053 15.5096 10.5609 15.7548 10.1297C16 9.69845 16.1685 9.39659 16.2605 9.22412C16.3831 9.02286 16.5671 8.72096 16.8124 8.31844C17.0576 7.91591 17.257 7.61398 17.4104 7.41264C17.5946 7.21122 17.7942 6.98105 18.0091 6.72213C18.2239 6.46322 18.4082 6.27615 18.5618 6.16093C18.7463 6.04563 18.9155 5.98777 19.0694 5.98738C19.1618 5.98714 19.2543 6.02996 19.3469 6.11584C19.4703 6.20164 19.5325 6.44548 19.5335 6.84737C19.5349 7.39279 19.4439 7.92409 19.2605 8.44128C18.741 9.96407 18.0367 11.4443 17.1475 12.8819C16.2583 14.3195 14.8469 16.2465 12.9133 18.6628C10.2126 22.0572 8.86273 23.9697 8.86384 24.4003C8.86451 24.6586 8.94182 24.7876 9.09577 24.7872C9.18814 24.787 9.52658 24.6856 10.1111 24.4831C10.7263 24.2519 12.3102 23.5588 14.8628 22.404C17.4462 21.2203 19.2913 20.34 20.3983 19.763C28.7315 15.5216 33.5548 11.3467 34.8682 7.23828C35.021 6.80729 35.0968 6.36214 35.0956 5.90285C35.0933 4.98425 34.6295 4.25343 33.7044 3.7104C32.7793 3.16738 31.3311 2.78359 29.36 2.55904C28.5283 2.44636 27.1118 2.39261 25.1105 2.39779C23.1091 2.40297 21.4928 2.46457 20.2614 2.58258C15.9826 2.99554 12.6746 3.73612 10.3373 4.8043C9.81442 5.03531 9.44553 5.26591 9.2306 5.49612C9.01566 5.72633 8.75498 6.12889 8.44856 6.70381C7.89694 7.70997 7.17478 8.25726 6.28208 8.34569L6.05116 8.34628C5.21982 8.34844 4.80311 7.94762 4.80103 7.14385L4.80014 6.79937C4.89073 6.11019 5.19715 5.53526 5.71939 5.07461C6.27235 4.58517 7.16408 4.12356 8.39458 3.68978C12.0245 2.3886 17.5489 1.44134 24.9679 0.848014Z" stroke="#4F3600" stroke-width="1.6" mask="url(#path-1-outside-1_6_16)"/>
</g>
<defs>
<filter id="filter0_d_6_16" x="0" y="0" width="254.97" height="43.052" filterUnits="userSpaceOnUse" color-interpolation-filters="sRGB">
<feFlood flood-opacity="0" result="BackgroundImageFix"/>
<feColorMatrix in="SourceAlpha" type="matrix" values="0 0 0 0 0 0 0 0 0 0 0 0 0 0 0 0 0 0 127 0" result="hardAlpha"/>
<feOffset dy="4"/>
<feGaussianBlur stdDeviation="2"/>
<feComposite in2="hardAlpha" operator="out"/>
<feColorMatrix type="matrix" values="0 0 0 0 0 0 0 0 0 0 0 0 0 0 0 0 0 0 0.25 0"/>
<feBlend mode="normal" in2="BackgroundImageFix" result="effect1_dropShadow_6_16"/>
<feBlend mode="normal" in="SourceGraphic" in2="effect1_dropShadow_6_16" result="shape"/>
</filter>
</defs>
</svg>
